<svg xmlns="http://www.w3.org/2000/svg" width="160" height="53" fill="none" viewBox="0 0 160 53"><path fill="#000" d="M44.634 33.2945C43.6213 33.2945 42.7378 33.1292 41.9835 32.7985C41.2292 32.4575 40.604 32.0028 40.108 31.4345C39.6223 30.8662 39.2607 30.2358 39.023 29.5435C38.7853 28.8512 38.6665 28.1588 38.6665 27.4665V27.1255C38.6665 26.4125 38.7853 25.715 39.023 25.033C39.2607 24.351 39.6172 23.731 40.0925 23.173C40.5782 22.615 41.1775 22.1707 41.8905 21.84C42.6138 21.5093 43.4457 21.344 44.386 21.344C45.409 21.344 46.3132 21.5352 47.0985 21.9175C47.8838 22.2895 48.5142 22.8113 48.9895 23.483C49.4648 24.1443 49.7387 24.9142 49.811 25.7925H47.269C47.207 25.3792 47.0417 25.0175 46.773 24.7075C46.5147 24.3975 46.1788 24.1547 45.7655 23.979C45.3625 23.8033 44.9027 23.7155 44.386 23.7155C43.89 23.7155 43.4457 23.8033 43.053 23.979C42.6707 24.1547 42.34 24.4027 42.061 24.723C41.7923 25.0433 41.5857 25.4257 41.441 25.87C41.3067 26.304 41.2395 26.7845 41.2395 27.3115C41.2395 27.8592 41.3118 28.3603 41.4565 28.815C41.6115 29.2593 41.8337 29.6468 42.123 29.9775C42.4123 30.2978 42.7688 30.5458 43.1925 30.7215C43.6265 30.8972 44.107 30.985 44.634 30.985C45.3367 30.985 45.9463 30.8403 46.463 30.551C46.9797 30.2617 47.3517 29.8793 47.579 29.404L47.269 31.14V28.443H49.6095V30.861C49.1238 31.6463 48.4522 32.2508 47.5945 32.6745C46.7472 33.0878 45.7603 33.2945 44.634 33.2945ZM44.3085 28.939V27.11H50.5395V28.939H44.3085ZM52.4461 33V24.506H54.9261V33H52.4461ZM51.3146 26.335V24.506H54.9261V26.335H51.3146ZM53.4071 23.669C52.9421 23.669 52.596 23.5502 52.3686 23.3125C52.1516 23.0645 52.0431 22.7545 52.0431 22.3825C52.0431 22.0002 52.1516 21.6902 52.3686 21.4525C52.596 21.2045 52.9421 21.0805 53.4071 21.0805C53.8721 21.0805 54.2131 21.2045 54.4301 21.4525C54.6575 21.6902 54.7711 22.0002 54.7711 22.3825C54.7711 22.7545 54.6575 23.0645 54.4301 23.3125C54.2131 23.5502 53.8721 23.669 53.4071 23.669ZM61.0794 33.1085C60.2217 33.1085 59.5294 33.0052 59.0024 32.7985C58.4754 32.5815 58.0879 32.225 57.8399 31.729C57.6022 31.2227 57.4834 30.5407 57.4834 29.683V22.212H59.7929V29.776C59.7929 30.179 59.8962 30.489 60.1029 30.706C60.3199 30.9127 60.6247 31.016 61.0174 31.016H62.2729V33.1085H61.0794ZM56.1969 26.3195V24.506H62.2729V26.3195H56.1969ZM67.104 33.2635C65.895 33.2635 64.9495 33.0155 64.2675 32.5195C63.5855 32.0235 63.2239 31.326 63.1825 30.427H65.3835C65.4249 30.6957 65.585 30.9385 65.864 31.1555C66.1534 31.3622 66.5822 31.4655 67.1505 31.4655C67.5845 31.4655 67.941 31.3932 68.22 31.2485C68.5094 31.0935 68.654 30.8765 68.654 30.5975C68.654 30.3495 68.5455 30.1532 68.3285 30.0085C68.1115 29.8535 67.724 29.745 67.166 29.683L66.4995 29.621C65.4765 29.5177 64.7067 29.2335 64.19 28.7685C63.6837 28.3035 63.4305 27.7093 63.4305 26.986C63.4305 26.3867 63.5804 25.8855 63.88 25.4825C64.1797 25.0795 64.593 24.7747 65.12 24.568C65.6574 24.3613 66.267 24.258 66.949 24.258C68.0444 24.258 68.9279 24.5008 69.5995 24.9865C70.2712 25.4618 70.6225 26.1542 70.6535 27.0635H68.4525C68.4112 26.7845 68.2665 26.552 68.0185 26.366C67.7705 26.1697 67.4037 26.0715 66.918 26.0715C66.5357 26.0715 66.2309 26.1438 66.0035 26.2885C65.7762 26.4332 65.6625 26.6295 65.6625 26.8775C65.6625 27.1152 65.7607 27.296 65.957 27.42C66.1534 27.544 66.4737 27.6318 66.918 27.6835L67.5845 27.7455C68.6282 27.8592 69.4394 28.1485 70.018 28.6135C70.5967 29.0785 70.886 29.7037 70.886 30.489C70.886 31.0573 70.731 31.5533 70.421 31.977C70.111 32.3903 69.6719 32.7107 69.1035 32.938C68.5352 33.155 67.8687 33.2635 67.104 33.2635ZM72.4928 33V21.685H74.9728V28.2105H74.6008C74.6008 27.3528 74.7093 26.6295 74.9263 26.0405C75.1433 25.4515 75.4637 25.0072 75.8873 24.7075C76.311 24.3975 76.8432 24.2425 77.4838 24.2425H77.5923C78.5327 24.2425 79.2508 24.5783 79.7468 25.25C80.2428 25.9113 80.4908 26.8827 80.4908 28.164V33H78.0108V28.009C78.0108 27.544 77.8713 27.172 77.5923 26.893C77.3237 26.6037 76.9672 26.459 76.5228 26.459C76.0578 26.459 75.6807 26.6088 75.3913 26.9085C75.1123 27.2082 74.9728 27.606 74.9728 28.102V33H72.4928ZM86.7427 33.2945C85.9987 33.2945 85.3373 33.1808 84.7587 32.9535C84.18 32.7158 83.6892 32.3955 83.2862 31.9925C82.8935 31.5895 82.5938 31.1297 82.3872 30.613C82.1805 30.086 82.0772 29.5332 82.0772 28.9545V28.598C82.0772 28.009 82.1805 27.451 82.3872 26.924C82.6042 26.3867 82.9142 25.9165 83.3172 25.5135C83.7305 25.1105 84.2265 24.7953 84.8052 24.568C85.3838 24.3303 86.0297 24.2115 86.7427 24.2115C87.4763 24.2115 88.1273 24.3303 88.6957 24.568C89.2743 24.7953 89.7652 25.1105 90.1682 25.5135C90.5712 25.9165 90.8812 26.3867 91.0982 26.924C91.3152 27.451 91.4237 28.009 91.4237 28.598V28.9545C91.4237 29.5332 91.3203 30.086 91.1137 30.613C90.907 31.1297 90.6022 31.5895 90.1992 31.9925C89.8065 32.3955 89.3208 32.7158 88.7422 32.9535C88.1635 33.1808 87.497 33.2945 86.7427 33.2945ZM86.7427 31.202C87.2283 31.202 87.6313 31.0987 87.9517 30.892C88.272 30.6853 88.5148 30.396 88.6802 30.024C88.8558 29.652 88.9437 29.2387 88.9437 28.784C88.9437 28.2983 88.8558 27.8747 88.6802 27.513C88.5045 27.141 88.2513 26.8465 87.9207 26.6295C87.6003 26.4125 87.2077 26.304 86.7427 26.304C86.288 26.304 85.8953 26.4125 85.5647 26.6295C85.234 26.8465 84.9808 27.141 84.8052 27.513C84.6398 27.8747 84.5572 28.2983 84.5572 28.784C84.5572 29.2387 84.6398 29.652 84.8052 30.024C84.9705 30.396 85.2185 30.6853 85.5492 30.892C85.8798 31.0987 86.2777 31.202 86.7427 31.202ZM96.9674 33.2945C96.2338 33.2945 95.5931 33.1757 95.0454 32.938C94.5081 32.69 94.0586 32.3593 93.6969 31.946C93.3353 31.5327 93.0666 31.0677 92.8909 30.551C92.7153 30.024 92.6274 29.4815 92.6274 28.9235V28.629C92.6274 28.0503 92.7204 27.4975 92.9064 26.9705C93.0924 26.4332 93.3663 25.9578 93.7279 25.5445C94.0896 25.1312 94.5391 24.8057 95.0764 24.568C95.6241 24.3303 96.2493 24.2115 96.9519 24.2115C97.7166 24.2115 98.3934 24.3613 98.9824 24.661C99.5714 24.9503 100.042 25.3585 100.393 25.8855C100.744 26.4125 100.941 27.017 100.982 27.699H98.5484C98.5071 27.3167 98.3521 26.9963 98.0834 26.738C97.8251 26.4693 97.4479 26.335 96.9519 26.335C96.5386 26.335 96.1924 26.4383 95.9134 26.645C95.6448 26.8517 95.4433 27.1358 95.3089 27.4975C95.1746 27.8592 95.1074 28.288 95.1074 28.784C95.1074 29.2387 95.1694 29.652 95.2934 30.024C95.4174 30.3857 95.6138 30.6698 95.8824 30.8765C96.1614 31.0728 96.5231 31.171 96.9674 31.171C97.2981 31.171 97.5771 31.1142 97.8044 31.0005C98.0421 30.8765 98.2281 30.7112 98.3624 30.5045C98.5071 30.2875 98.5949 30.0395 98.6259 29.7605H101.044C101.013 30.4632 100.817 31.0832 100.455 31.6205C100.093 32.1475 99.6128 32.5608 99.0134 32.8605C98.4141 33.1498 97.7321 33.2945 96.9674 33.2945ZM108.613 33L105.932 29.032H104.738L108.195 24.506H110.799L107.544 28.722L107.575 27.513L111.403 33H108.613ZM102.63 33V21.685H105.11V33H102.63ZM119.86 33.2945C118.837 33.2945 117.975 33.1343 117.272 32.814C116.569 32.4833 116.037 32.039 115.675 31.481C115.314 30.9127 115.133 30.2617 115.133 29.528H117.597C117.597 29.8173 117.675 30.086 117.83 30.334C117.995 30.582 118.243 30.7835 118.574 30.9385C118.905 31.0832 119.333 31.1555 119.86 31.1555C120.336 31.1555 120.734 31.0935 121.054 30.9695C121.374 30.8455 121.617 30.675 121.782 30.458C121.948 30.2307 122.03 29.9723 122.03 29.683C122.03 29.3213 121.875 29.0372 121.565 28.8305C121.255 28.6135 120.754 28.474 120.062 28.412L119.209 28.3345C118.083 28.2415 117.184 27.8902 116.512 27.2805C115.841 26.6708 115.505 25.8648 115.505 24.8625C115.505 24.1392 115.675 23.514 116.016 22.987C116.368 22.46 116.853 22.057 117.473 21.778C118.093 21.4887 118.827 21.344 119.674 21.344C120.563 21.344 121.323 21.499 121.953 21.809C122.594 22.1087 123.084 22.5375 123.425 23.0955C123.766 23.6432 123.937 24.289 123.937 25.033H121.457C121.457 24.754 121.39 24.5008 121.255 24.2735C121.121 24.0358 120.92 23.8447 120.651 23.7C120.393 23.5553 120.067 23.483 119.674 23.483C119.302 23.483 118.987 23.545 118.729 23.669C118.481 23.793 118.295 23.9635 118.171 24.1805C118.047 24.3872 117.985 24.6145 117.985 24.8625C117.985 25.1828 118.099 25.4618 118.326 25.6995C118.553 25.9372 118.925 26.0767 119.442 26.118L120.31 26.1955C121.137 26.2678 121.865 26.4487 122.495 26.738C123.126 27.017 123.617 27.4045 123.968 27.9005C124.33 28.3862 124.51 28.9803 124.51 29.683C124.51 30.4063 124.319 31.0418 123.937 31.5895C123.565 32.1268 123.033 32.5453 122.34 32.845C121.648 33.1447 120.821 33.2945 119.86 33.2945ZM129.238 33L130.788 24.785H133.5L135.298 33H133.376L131.532 24.847H132.632L130.974 33H129.238ZM128.649 33L128.633 30.9385H130.338L130.354 33H128.649ZM127.533 33L125.254 24.506H127.688L129.811 33H127.533ZM134.012 33L134.027 30.9385H135.732V33H134.012ZM134.709 33L136.6 24.506H138.879L136.833 33H134.709ZM145.406 33V30.489H144.987V27.761C144.987 27.327 144.884 27.0015 144.677 26.7845C144.47 26.5675 144.14 26.459 143.685 26.459C143.458 26.459 143.158 26.4642 142.786 26.4745C142.414 26.4848 142.032 26.5003 141.639 26.521C141.246 26.5417 140.89 26.5623 140.57 26.583V24.4905C140.807 24.4698 141.086 24.4492 141.407 24.4285C141.727 24.4078 142.058 24.3923 142.399 24.382C142.74 24.3717 143.06 24.3665 143.36 24.3665C144.228 24.3665 144.956 24.4905 145.545 24.7385C146.144 24.9865 146.599 25.3637 146.909 25.87C147.219 26.366 147.374 27.0067 147.374 27.792V33H145.406ZM142.693 33.217C142.083 33.217 141.546 33.1085 141.081 32.8915C140.626 32.6745 140.27 32.3645 140.012 31.9615C139.753 31.5482 139.624 31.0573 139.624 30.489C139.624 29.869 139.784 29.3627 140.105 28.97C140.425 28.567 140.874 28.2725 141.453 28.0865C142.032 27.8902 142.698 27.792 143.453 27.792H145.266V29.1715H143.437C143.003 29.1715 142.667 29.28 142.43 29.497C142.202 29.7037 142.089 29.9878 142.089 30.3495C142.089 30.6905 142.202 30.9695 142.43 31.1865C142.667 31.3932 143.003 31.4965 143.437 31.4965C143.716 31.4965 143.964 31.45 144.181 31.357C144.408 31.2537 144.594 31.0832 144.739 30.8455C144.884 30.6078 144.966 30.2772 144.987 29.8535L145.576 30.4735C145.524 31.0625 145.38 31.5585 145.142 31.9615C144.915 32.3645 144.594 32.6745 144.181 32.8915C143.778 33.1085 143.282 33.217 142.693 33.217ZM149.478 36.1V24.506H151.447V28.1795L151.183 28.164C151.225 27.3167 151.4 26.6037 151.71 26.025C152.02 25.436 152.439 24.9968 152.966 24.7075C153.493 24.4078 154.087 24.258 154.748 24.258C155.337 24.258 155.869 24.3665 156.345 24.5835C156.83 24.8005 157.244 25.1053 157.585 25.498C157.936 25.8803 158.2 26.335 158.375 26.862C158.561 27.3787 158.654 27.947 158.654 28.567V28.9235C158.654 29.5332 158.566 30.1067 158.391 30.644C158.215 31.171 157.957 31.6308 157.616 32.0235C157.285 32.4162 156.877 32.7262 156.391 32.9535C155.916 33.1705 155.368 33.279 154.748 33.279C154.108 33.279 153.529 33.1498 153.012 32.8915C152.506 32.6228 152.098 32.2198 151.788 31.6825C151.478 31.1348 151.307 30.4425 151.276 29.6055L151.958 30.5355V36.1H149.478ZM154.051 31.202C154.474 31.202 154.841 31.0987 155.151 30.892C155.472 30.6853 155.72 30.396 155.895 30.024C156.071 29.652 156.159 29.2232 156.159 28.7375C156.159 28.2518 156.071 27.8282 155.895 27.4665C155.72 27.1048 155.477 26.8258 155.167 26.6295C154.857 26.4228 154.485 26.3195 154.051 26.3195C153.679 26.3195 153.327 26.4073 152.997 26.583C152.666 26.7587 152.397 27.0118 152.191 27.3425C151.994 27.6628 151.896 28.0555 151.896 28.5205V29.094C151.896 29.5383 152 29.9207 152.206 30.241C152.423 30.551 152.697 30.7887 153.028 30.954C153.358 31.1193 153.699 31.202 154.051 31.202Z"/><path fill="url(#paint0_linear_9_709)" fill-rule="evenodd" d="M18.7134 10C18.808 10 18.9013 10.0026 18.9946 10.0039C22.1575 12.2288 23.3611 15.0678 23.0559 18.3799L18.6294 14.1219L13.9016 18.6701C10.7907 16.6241 8.33685 15.7416 7.47314 16.5735C6.60943 17.4041 7.52646 19.7638 9.65374 22.757L5.5178 26.7351C4.06762 27.2651 2.60678 27.8404 1.15793 28.4404C1.11395 27.9493 1.08862 27.453 1.08862 26.9515C1.08862 17.5894 8.9793 10 18.7134 10Z" clip-rule="evenodd"/><path fill="url(#paint1_linear_9_709)" fill-rule="evenodd" d="M1.00192 26.7883C1.00325 26.6976 1.00725 26.6082 1.00992 26.5175C3.36912 23.5087 6.33879 22.3917 9.7763 22.7338L5.28715 26.9283L9.94558 31.5413C7.77298 34.5034 6.8213 36.8514 7.67301 37.6937C8.52339 38.5372 10.9906 37.6898 14.1322 35.6865L18.2068 39.7216C18.7386 41.1249 19.3144 42.5373 19.9182 43.9407C19.4064 43.9757 18.8906 43.9912 18.3681 43.9847C8.63668 43.8487 0.861968 36.1504 1.00192 26.7883Z" clip-rule="evenodd"/><path fill="url(#paint2_linear_9_709)" fill-rule="evenodd" d="M18.2882 43.9999C18.1935 43.9999 18.1002 43.9987 18.0069 43.9974C14.844 41.7712 13.6404 38.9321 13.9456 35.6201L18.3721 39.878L23.0986 35.3311C26.2095 37.3759 28.6647 38.2583 29.5284 37.4277C30.3921 36.5958 29.4751 34.2362 27.3478 31.2442L31.4837 27.2661C32.9339 26.7349 34.3948 26.1608 35.8436 25.5596C35.8876 26.0507 35.9116 26.547 35.9116 27.0497C35.9116 36.4105 28.0209 43.9999 18.2882 43.9999Z" clip-rule="evenodd"/><path fill="url(#paint3_linear_9_709)" fill-rule="evenodd" d="M35.9982 27.2117C35.9969 27.3024 35.9942 27.3918 35.9916 27.4825C33.6324 30.4927 30.6627 31.6083 27.2252 31.2676L31.7143 27.0718L27.0559 22.4588C29.2272 19.4966 30.1802 17.1486 29.3285 16.3064C28.4768 15.4641 26.0109 16.3115 22.8693 18.3135L18.7933 14.2785C18.2629 12.8764 17.687 11.4627 17.0833 10.0607C17.5937 10.0244 18.1109 10.0088 18.6321 10.0166C28.3648 10.1514 36.1395 17.8509 35.9982 27.2117Z" clip-rule="evenodd"/><path fill="url(#paint4_linear_9_709)" fill-rule="evenodd" d="M15.641 26.8206L18.2802 24.2821C18.4521 24.1176 18.732 24.1176 18.9039 24.2821L21.5431 26.8206C21.715 26.9851 21.715 27.256 21.5431 27.4205L18.9039 29.959C18.7333 30.1248 18.4521 30.1248 18.2802 29.959L15.641 27.4205C15.4691 27.256 15.4691 26.9851 15.641 26.8206Z" clip-rule="evenodd"/><path fill="red" d="M128.15 21.0275V20.4005H129.156C129.339 20.4005 129.479 20.351 129.574 20.252C129.669 20.1493 129.717 20.01 129.717 19.834C129.717 19.658 129.669 19.5223 129.574 19.427C129.479 19.328 129.339 19.2785 129.156 19.2785H128.15V18.8H129.101C129.369 18.8 129.607 18.833 129.816 18.899C130.029 18.9613 130.194 19.0677 130.311 19.218C130.432 19.3683 130.493 19.57 130.493 19.823V19.9C130.493 20.1383 130.439 20.3418 130.333 20.5105C130.23 20.6755 130.075 20.8038 129.866 20.8955C129.66 20.9835 129.405 21.0275 129.101 21.0275H128.15ZM127.495 21.0275V16.9575H128.26V21.0275H127.495ZM128.15 19.152V18.6735H129.008C129.195 18.6735 129.332 18.624 129.42 18.525C129.508 18.426 129.552 18.294 129.552 18.129C129.552 17.964 129.508 17.832 129.42 17.733C129.332 17.634 129.195 17.5845 129.008 17.5845H128.15V16.9575H128.936C129.391 16.9575 129.735 17.0528 129.97 17.2435C130.208 17.4342 130.328 17.7073 130.328 18.063V18.14C130.328 18.3893 130.267 18.5892 130.146 18.7395C130.029 18.8862 129.866 18.9925 129.657 19.0585C129.448 19.1208 129.207 19.152 128.936 19.152H128.15ZM132.531 21.1045C132.274 21.1045 132.049 21.0605 131.854 20.9725C131.664 20.8845 131.504 20.7672 131.376 20.6205C131.251 20.4702 131.156 20.3033 131.09 20.12C131.027 19.9367 130.996 19.7497 130.996 19.559V19.4545C130.996 19.2565 131.027 19.0658 131.09 18.8825C131.156 18.6955 131.251 18.5305 131.376 18.3875C131.504 18.2408 131.662 18.1253 131.849 18.041C132.036 17.953 132.252 17.909 132.498 17.909C132.82 17.909 133.09 17.9805 133.306 18.1235C133.526 18.2628 133.691 18.448 133.801 18.679C133.911 18.9063 133.966 19.152 133.966 19.416V19.691H131.321V19.2235H133.488L133.251 19.4545C133.251 19.2638 133.224 19.1007 133.169 18.965C133.114 18.8293 133.029 18.7248 132.916 18.6515C132.806 18.5782 132.666 18.5415 132.498 18.5415C132.329 18.5415 132.186 18.58 132.069 18.657C131.951 18.734 131.862 18.8458 131.799 18.9925C131.741 19.1355 131.711 19.3078 131.711 19.5095C131.711 19.6965 131.741 19.8633 131.799 20.01C131.858 20.153 131.948 20.2667 132.069 20.351C132.19 20.4317 132.344 20.472 132.531 20.472C132.718 20.472 132.87 20.4353 132.987 20.362C133.105 20.285 133.18 20.1915 133.213 20.0815H133.917C133.873 20.2868 133.788 20.4665 133.664 20.6205C133.539 20.7745 133.38 20.8937 133.185 20.978C132.995 21.0623 132.776 21.1045 132.531 21.1045ZM135.903 21.0385C135.628 21.0385 135.401 21.0037 135.221 20.934C135.045 20.8607 134.913 20.7397 134.825 20.571C134.737 20.3987 134.693 20.1677 134.693 19.878L134.698 17.172H135.413L135.408 19.9275C135.408 20.0742 135.446 20.1878 135.523 20.2685C135.604 20.3455 135.718 20.384 135.864 20.384H136.332V21.0385H135.903ZM134.22 18.5745V18.0135H136.332V18.5745H134.22ZM138.772 21V20.1145H138.646V19.13C138.646 18.9577 138.604 18.8293 138.519 18.745C138.435 18.6607 138.305 18.6185 138.129 18.6185C138.037 18.6185 137.927 18.6203 137.799 18.624C137.67 18.6277 137.54 18.6332 137.408 18.6405C137.28 18.6442 137.164 18.6497 137.062 18.657V18.008C137.146 18.0007 137.241 17.9933 137.348 17.986C137.454 17.9787 137.562 17.975 137.672 17.975C137.786 17.9713 137.892 17.9695 137.991 17.9695C138.299 17.9695 138.554 18.0098 138.756 18.0905C138.961 18.1712 139.115 18.2977 139.218 18.47C139.324 18.6423 139.377 18.8678 139.377 19.1465V21H138.772ZM137.81 21.077C137.593 21.077 137.403 21.0385 137.238 20.9615C137.076 20.8845 136.95 20.7745 136.858 20.6315C136.77 20.4885 136.726 20.3162 136.726 20.1145C136.726 19.8945 136.779 19.7148 136.886 19.5755C136.996 19.4362 137.148 19.3317 137.342 19.262C137.54 19.1923 137.771 19.1575 138.035 19.1575H138.728V19.614H138.024C137.848 19.614 137.713 19.658 137.617 19.746C137.526 19.8303 137.48 19.9403 137.48 20.076C137.48 20.2117 137.526 20.3217 137.617 20.406C137.713 20.4903 137.848 20.5325 138.024 20.5325C138.131 20.5325 138.228 20.5142 138.316 20.4775C138.407 20.4372 138.483 20.3712 138.541 20.2795C138.604 20.1842 138.638 20.0558 138.646 19.8945L138.833 20.109C138.814 20.318 138.763 20.494 138.679 20.637C138.598 20.78 138.484 20.89 138.338 20.967C138.195 21.0403 138.019 21.077 137.81 21.077ZM142.236 21V17.5625H143.017V21H142.236ZM141.075 17.6725V16.985H144.177V17.6725H141.075ZM145.706 21.1045C145.449 21.1045 145.224 21.0605 145.03 20.9725C144.839 20.8845 144.679 20.7672 144.551 20.6205C144.426 20.4702 144.331 20.3033 144.265 20.12C144.203 19.9367 144.172 19.7497 144.172 19.559V19.4545C144.172 19.2565 144.203 19.0658 144.265 18.8825C144.331 18.6955 144.426 18.5305 144.551 18.3875C144.679 18.2408 144.837 18.1253 145.024 18.041C145.211 17.953 145.427 17.909 145.673 17.909C145.996 17.909 146.265 17.9805 146.482 18.1235C146.702 18.2628 146.867 18.448 146.977 18.679C147.087 18.9063 147.142 19.152 147.142 19.416V19.691H144.496V19.2235H146.663L146.427 19.4545C146.427 19.2638 146.399 19.1007 146.344 18.965C146.289 18.8293 146.205 18.7248 146.091 18.6515C145.981 18.5782 145.842 18.5415 145.673 18.5415C145.504 18.5415 145.361 18.58 145.244 18.657C145.127 18.734 145.037 18.8458 144.975 18.9925C144.916 19.1355 144.887 19.3078 144.887 19.5095C144.887 19.6965 144.916 19.8633 144.975 20.01C145.033 20.153 145.123 20.2667 145.244 20.351C145.365 20.4317 145.519 20.472 145.706 20.472C145.893 20.472 146.045 20.4353 146.163 20.362C146.28 20.285 146.355 20.1915 146.388 20.0815H147.092C147.048 20.2868 146.964 20.4665 146.839 20.6205C146.714 20.7745 146.555 20.8937 146.361 20.978C146.17 21.0623 145.952 21.1045 145.706 21.1045ZM148.864 21.0935C148.453 21.0935 148.13 21.0073 147.896 20.835C147.665 20.659 147.544 20.417 147.533 20.109H148.22C148.231 20.2117 148.288 20.3052 148.391 20.3895C148.493 20.4738 148.655 20.516 148.875 20.516C149.058 20.516 149.203 20.483 149.309 20.417C149.419 20.351 149.474 20.2612 149.474 20.1475C149.474 20.0485 149.432 19.9697 149.348 19.911C149.267 19.8523 149.128 19.8138 148.93 19.7955L148.666 19.768C148.332 19.7313 148.075 19.636 147.896 19.482C147.716 19.328 147.626 19.1227 147.626 18.866C147.626 18.6607 147.678 18.4883 147.78 18.349C147.883 18.2097 148.024 18.1052 148.204 18.0355C148.387 17.9622 148.596 17.9255 148.831 17.9255C149.197 17.9255 149.494 18.0062 149.722 18.1675C149.949 18.3288 150.068 18.5653 150.079 18.877H149.392C149.384 18.7743 149.333 18.6863 149.238 18.613C149.142 18.5397 149.005 18.503 148.825 18.503C148.664 18.503 148.539 18.5342 148.451 18.5965C148.363 18.6588 148.319 18.7395 148.319 18.8385C148.319 18.9338 148.354 19.0072 148.424 19.0585C148.497 19.1098 148.614 19.1447 148.776 19.163L149.04 19.1905C149.392 19.2272 149.667 19.3243 149.865 19.482C150.066 19.6397 150.167 19.8523 150.167 20.12C150.167 20.318 150.112 20.4903 150.002 20.637C149.896 20.78 149.746 20.8918 149.551 20.9725C149.357 21.0532 149.128 21.0935 148.864 21.0935ZM152.097 21.0385C151.822 21.0385 151.594 21.0037 151.415 20.934C151.239 20.8607 151.107 20.7397 151.019 20.571C150.931 20.3987 150.887 20.1677 150.887 19.878L150.892 17.172H151.607L151.602 19.9275C151.602 20.0742 151.64 20.1878 151.717 20.2685C151.798 20.3455 151.912 20.384 152.058 20.384H152.526V21.0385H152.097ZM150.414 18.5745V18.0135H152.526V18.5745H150.414ZM154.488 21.1045C154.231 21.1045 154.006 21.0605 153.811 20.9725C153.621 20.8845 153.461 20.7672 153.333 20.6205C153.208 20.4702 153.113 20.3033 153.047 20.12C152.984 19.9367 152.953 19.7497 152.953 19.559V19.4545C152.953 19.2565 152.984 19.0658 153.047 18.8825C153.113 18.6955 153.208 18.5305 153.333 18.3875C153.461 18.2408 153.619 18.1253 153.806 18.041C153.993 17.953 154.209 17.909 154.455 17.909C154.777 17.909 155.047 17.9805 155.263 18.1235C155.483 18.2628 155.648 18.448 155.758 18.679C155.868 18.9063 155.923 19.152 155.923 19.416V19.691H153.278V19.2235H155.445L155.208 19.4545C155.208 19.2638 155.181 19.1007 155.126 18.965C155.071 18.8293 154.986 18.7248 154.873 18.6515C154.763 18.5782 154.623 18.5415 154.455 18.5415C154.286 18.5415 154.143 18.58 154.026 18.657C153.908 18.734 153.819 18.8458 153.756 18.9925C153.698 19.1355 153.668 19.3078 153.668 19.5095C153.668 19.6965 153.698 19.8633 153.756 20.01C153.815 20.153 153.905 20.2667 154.026 20.351C154.147 20.4317 154.301 20.472 154.488 20.472C154.675 20.472 154.827 20.4353 154.944 20.362C155.062 20.285 155.137 20.1915 155.17 20.0815H155.874C155.83 20.2868 155.745 20.4665 155.621 20.6205C155.496 20.7745 155.337 20.8937 155.142 20.978C154.952 21.0623 154.733 21.1045 154.488 21.1045ZM156.562 21V18.0135H157.167V19.2785H157.15C157.15 18.8495 157.242 18.525 157.425 18.305C157.609 18.085 157.878 17.975 158.234 17.975H158.344V18.6405H158.135C157.878 18.6405 157.678 18.7102 157.535 18.8495C157.396 18.9852 157.326 19.1832 157.326 19.4435V21H156.562Z"/><defs><linearGradient id="paint0_linear_9_709" x1="1.089" x2="31.956" y1="19.22" y2="20.369" gradientUnits="userSpaceOnUse"><stop stop-color="#A0D9F6"/><stop offset="1" stop-color="#4A7FFE"/></linearGradient><linearGradient id="paint1_linear_9_709" x1="1.117" x2="15.125" y1="30.73" y2="42.047" gradientUnits="userSpaceOnUse"><stop stop-color="#4A7FFE"/><stop offset="1" stop-color="#D856C1"/></linearGradient><linearGradient id="paint2_linear_9_709" x1="35.945" x2="11.239" y1="33.51" y2="28.785" gradientUnits="userSpaceOnUse"><stop stop-color="#BF0BE0"/><stop offset="1" stop-color="#D6D6D6"/></linearGradient><linearGradient id="paint3_linear_9_709" x1="33.397" x2="33.609" y1="28.427" y2="9.643" gradientUnits="userSpaceOnUse"><stop stop-color="#D856C1"/><stop offset="1" stop-color="#F2F8FB"/></linearGradient><linearGradient id="paint4_linear_9_709" x1="21.406" x2="15.332" y1="32.325" y2="24.361" gradientUnits="userSpaceOnUse"><stop stop-color="#CF0FE9"/><stop offset="1" stop-color="#A0D9F6"/></linearGradient></defs></svg>