<svg xmlns="http://www.w3.org/2000/svg" width="1223" height="515" fill="none" viewBox="0 0 1223 515"><rect width="140.121" height="140.121" x="0" y="2.167" fill="#9FADCC" stroke="#CAD4E8" stroke-width="4.334" transform="matrix(0.866025 0.5 -0.866025 0.5 146.518 263.756)"/><rect width="138.676" height="138.676" x="0" y="2.889" fill="#7197D6" stroke="#D4E4FE" stroke-width="5.778" transform="matrix(0.866025 0.5 -0.866025 0.5 147.143 264.117)"/><rect width="123.507" height="123.507" fill="#fff" transform="matrix(0.866025 0.5 -0.866025 0.5 144.529 253.283)"/><rect width="101.063" height="101.063" fill="#fff" transform="matrix(0.866025 0.5 -0.866025 0.5 144.529 264.505)"/><rect width="99.618" height="99.618" x="0" y=".722" stroke="#CFD7FF" stroke-opacity=".35" stroke-width="1.445" transform="matrix(0.866025 0.5 -0.866025 0.5 145.155 264.867)"/><g filter="url(#filter0_f_7_157)"><ellipse cx="144.342" cy="321.582" fill="#3246FF" rx="28.957" ry="20.263" transform="rotate(30 144.342 321.582)"/></g><path fill="url(#paint0_linear_7_157)" d="M37.5691 329.803L144.495 391.537V407.14L37.5691 345.406L37.5691 329.803Z"/><path fill="url(#paint1_linear_7_157)" d="M251.421 329.803L144.495 391.537V407.14L251.421 345.406V329.803Z"/><path fill="url(#paint2_linear_7_157)" d="M37.5691 314.688L144.495 376.422V392.025L37.5691 330.291L37.5691 314.688Z"/><path fill="#fff" fill-opacity=".58" d="M37.5691 314.688L144.495 376.422V392.025L37.5691 330.291L37.5691 314.688Z"/><path fill="url(#paint3_linear_7_157)" d="M251.421 314.688L144.495 376.422V392.025L251.421 330.291V314.688Z"/><path fill="#fff" fill-opacity=".58" d="M251.421 314.688L144.495 376.422V392.025L251.421 330.291V314.688Z"/><path fill="#B9C1FF" d="M148.981 253.621L150.811 257.565L155.811 254.678L148.981 253.621ZM284.765 332.016L282.935 328.073L277.935 330.96L284.765 332.016ZM284.765 337.233L277.935 338.29L282.935 341.177L284.765 337.233ZM148.981 415.628L155.811 414.572L150.811 411.685L148.981 415.628ZM140.302 415.628L138.472 411.685L133.472 414.572L140.302 415.628ZM4.51794 337.233L6.34807 341.177L11.3481 338.29L4.51794 337.233ZM4.51795 332.017L11.3481 330.96L6.34808 328.073L4.51795 332.017ZM140.302 253.621L133.472 254.678L138.472 257.565L140.302 253.621ZM152.445 256.121L280.435 330.016L281.301 329.516L153.311 255.621L152.445 256.121ZM280.435 339.233L152.445 413.128L153.311 413.628L281.301 339.733L280.435 339.233ZM136.838 413.128L8.84807 339.233L7.98204 339.733L135.972 413.628L136.838 413.128ZM8.84808 330.017L136.838 256.121L135.972 255.621L7.98205 329.517L8.84808 330.017Z"/><g filter="url(#filter1_i_7_157)"><rect width="79.45" height="79.45" fill="#3284FF" fill-opacity=".05" transform="matrix(0.866025 0.5 -0.866025 0.5 146.466 255.45)"/></g><g filter="url(#filter2_bii_7_157)"><rect width="79.45" height="79.45" fill="url(#paint4_linear_7_157)" fill-opacity=".25" transform="matrix(0.866025 0.5 -2.20305e-08 1 146.276 176)"/><rect width="79.45" height="79.45" stroke="url(#paint5_linear_7_157)" stroke-linejoin="bevel" stroke-width="1.251" transform="matrix(0.866025 0.5 -2.20305e-08 1 146.276 176)"/></g><path fill="url(#paint6_linear_7_157)" d="M144 291C163.882 291 180 274.882 180 255C180 235.118 163.882 219 144 219C124.118 219 108 235.118 108 255C108 274.882 124.118 291 144 291Z"/><path fill="#FEFEFE" d="M143.905 238.18L126.083 255.999L125.12 255.036L142.947 237.223L143.911 237.217L143.905 238.18ZM142.947 237.223C143.209 236.955 143.643 236.955 143.911 237.217C144.172 237.484 144.172 237.918 143.905 238.18L142.947 237.223ZM160.959 256.189L142.947 238.186L143.911 237.217L161.923 255.226V256.189H160.959ZM161.923 255.226C162.19 255.493 162.19 255.921 161.923 256.189C161.655 256.456 161.227 256.456 160.959 256.189L161.923 255.226ZM143.137 273.039L160.959 255.226L161.923 256.189L144.101 274.002H143.137V273.039ZM144.101 274.002C143.833 274.269 143.399 274.269 143.137 274.002C142.87 273.74 142.87 273.306 143.137 273.039L144.101 274.002ZM126.083 255.036L144.101 273.039L143.137 274.002L125.12 255.999V255.036H126.083ZM125.12 255.999C124.858 255.731 124.858 255.303 125.12 255.036C125.387 254.768 125.822 254.768 126.083 255.036L125.12 255.999Z"/><path fill="#FEFEFE" d="M147.426 251.731L146.469 252.688L145.713 251.939L144.958 251.214L144.202 250.507L143.453 249.823L142.709 249.158L141.972 248.51L141.24 247.892L140.514 247.291L139.8 246.721L139.098 246.168L138.403 245.645L137.724 245.152L137.058 244.676L136.404 244.236L135.773 243.82L135.155 243.434L134.56 243.083L133.983 242.756L133.43 242.465L132.9 242.204L132.395 241.972L131.913 241.776L131.467 241.615L131.05 241.49L130.67 241.401L130.325 241.342L130.021 241.318L129.759 241.324L129.551 241.354L129.385 241.407L129.266 241.467L129.171 241.544L128.213 240.587L128.522 240.331L128.873 240.147L129.254 240.034L129.646 239.975L130.063 239.963L130.491 239.999L130.943 240.07L131.407 240.183L131.895 240.331L132.401 240.51L132.93 240.73L133.477 240.973L134.048 241.259L134.631 241.568L135.238 241.906L135.863 242.281L136.505 242.679L137.159 243.107L137.831 243.565L138.516 244.046L139.211 244.557L139.919 245.092L140.645 245.657L141.371 246.239L142.108 246.851L142.858 247.481L143.607 248.141L144.363 248.819L145.124 249.514L145.892 250.233L146.659 250.97L147.426 251.731ZM158.574 270.935L157.616 269.972L157.693 269.883L157.753 269.758L157.806 269.591L157.836 269.383L157.842 269.122L157.818 268.819L157.759 268.474L157.67 268.094L157.539 267.678L157.378 267.232L157.188 266.75L156.956 266.251L156.694 265.716L156.403 265.163L156.075 264.587L155.724 263.993L155.338 263.374L154.921 262.744L154.481 262.091L154.005 261.425L153.512 260.747L152.988 260.052L152.435 259.351L151.864 258.637L151.263 257.912L150.644 257.181L150.002 256.438L149.336 255.695L148.646 254.947L147.938 254.198L147.212 253.443L146.469 252.688L147.426 251.731L148.182 252.498L148.919 253.259L149.639 254.025L150.341 254.786L151.019 255.541L151.673 256.296L152.304 257.039L152.917 257.782L153.5 258.507L154.065 259.226L154.6 259.939L155.112 260.634L155.594 261.318L156.052 261.99L156.48 262.643L156.878 263.285L157.253 263.909L157.592 264.516L157.902 265.098L158.181 265.669L158.431 266.215L158.645 266.744L158.829 267.25L158.978 267.737L159.091 268.207L159.163 268.652L159.198 269.08L159.186 269.496L159.127 269.895L159.008 270.269L158.824 270.626L158.574 270.935ZM139.36 259.791L140.318 258.834L141.073 259.577L141.829 260.302L142.584 261.009L143.328 261.698L144.077 262.364L144.815 263.006L145.547 263.63L146.272 264.224L146.986 264.801L147.688 265.348L148.384 265.871L149.062 266.37L149.728 266.84L150.377 267.285L151.013 267.695L151.632 268.082L152.227 268.438L152.804 268.759L153.357 269.056L153.886 269.318L154.392 269.544L154.868 269.74L155.32 269.9L155.736 270.025L156.117 270.12L156.462 270.174L156.765 270.204L157.021 270.198L157.235 270.162L157.396 270.114L157.521 270.049L157.616 269.972L158.574 270.935L158.264 271.184L157.913 271.369L157.533 271.487L157.134 271.547L156.724 271.559L156.295 271.523L155.843 271.446L155.379 271.333L154.892 271.19L154.386 271.006L153.857 270.792L153.309 270.542L152.738 270.263L152.149 269.954L151.549 269.609L150.924 269.241L150.282 268.837L149.627 268.409L148.955 267.951L148.271 267.47L147.575 266.958L146.861 266.424L146.141 265.865L145.416 265.276L144.672 264.664L143.929 264.034L143.179 263.38L142.418 262.703L141.656 262.002L140.895 261.282L140.128 260.545L139.36 259.791ZM128.213 240.587L129.171 241.544L129.093 241.639L129.034 241.758L128.98 241.924L128.95 242.132L128.944 242.394L128.968 242.697L129.028 243.042L129.117 243.422L129.242 243.838L129.403 244.29L129.599 244.765L129.831 245.27L130.087 245.799L130.384 246.352L130.705 246.929L131.062 247.529L131.449 248.141L131.865 248.777L132.305 249.425L132.775 250.091L133.275 250.774L133.798 251.464L134.346 252.171L134.923 252.884L135.518 253.609L136.142 254.34L136.785 255.077L137.451 255.82L138.141 256.569L138.849 257.324L139.574 258.079L140.318 258.834L139.36 259.791L138.605 259.024L137.861 258.257L137.147 257.49L136.445 256.73L135.767 255.975L135.113 255.22L134.482 254.477L133.87 253.74L133.287 253.009L132.722 252.29L132.186 251.582L131.675 250.881L131.193 250.198L130.735 249.526L130.307 248.872L129.908 248.23L129.533 247.612L129.194 247.006L128.879 246.418L128.599 245.847L128.356 245.3L128.135 244.771L127.957 244.266L127.808 243.779L127.695 243.315L127.624 242.863L127.588 242.435L127.6 242.025L127.66 241.627L127.773 241.247L127.957 240.896L128.213 240.587Z"/><path fill="#FEFEFE" d="M139.307 251.66L140.068 250.899L140.835 250.162L141.603 249.443L142.364 248.747L143.12 248.07L143.875 247.41L144.619 246.78L145.356 246.168L146.088 245.585L146.808 245.021L147.516 244.486L148.211 243.975L148.901 243.493L149.568 243.036L150.228 242.608L150.864 242.21L151.489 241.835L152.096 241.496L152.685 241.181L153.25 240.902L153.797 240.658L154.326 240.438L154.832 240.26L155.32 240.111L155.79 239.999L156.236 239.927L156.664 239.892L157.081 239.897L157.479 239.963L157.854 240.076L158.211 240.26L158.52 240.516L157.556 241.473L157.467 241.395L157.342 241.336L157.176 241.282L156.968 241.253L156.706 241.247L156.402 241.27L156.063 241.33L155.677 241.419L155.26 241.544L154.814 241.704L154.338 241.9L153.833 242.132L153.303 242.394L152.744 242.685L152.173 243.006L151.572 243.363L150.96 243.749L150.323 244.165L149.675 244.605L149.009 245.074L148.324 245.574L147.634 246.097L146.927 246.649L146.213 247.22L145.487 247.82L144.755 248.438L144.018 249.086L143.274 249.752L142.525 250.435L141.775 251.143L141.02 251.868L140.264 252.617L139.307 251.66ZM128.153 270.863L127.903 270.548L127.719 270.198L127.6 269.823L127.541 269.425L127.529 269.009L127.564 268.581L127.642 268.135L127.755 267.666L127.898 267.178L128.082 266.673L128.296 266.144L128.546 265.597L128.825 265.027L129.135 264.444L129.48 263.838L129.849 263.214L130.247 262.572L130.681 261.918L131.133 261.247L131.621 260.563L132.133 259.868L132.668 259.155L133.227 258.435L133.816 257.704L134.423 256.967L135.059 256.224L135.714 255.47L136.392 254.715L137.088 253.954L137.808 253.187L138.545 252.426L139.307 251.66L140.264 252.617L139.515 253.371L138.789 254.126L138.081 254.875L137.397 255.624L136.731 256.367L136.083 257.11L135.464 257.841L134.863 258.566L134.292 259.279L133.745 259.981L133.221 260.676L132.722 261.354L132.252 262.019L131.806 262.673L131.395 263.303L131.009 263.921L130.652 264.516L130.324 265.092L130.033 265.645L129.771 266.174L129.545 266.679L129.349 267.161L129.188 267.606L129.063 268.022L128.968 268.403L128.909 268.747L128.885 269.051L128.891 269.312L128.927 269.52L128.974 269.687L129.04 269.811L129.111 269.9L128.153 270.863ZM147.367 259.719L146.599 260.474L145.838 261.211L145.071 261.93L144.309 262.632L143.554 263.309L142.798 263.963L142.055 264.593L141.317 265.205L140.586 265.788L139.866 266.352L139.158 266.887L138.456 267.398L137.772 267.88L137.1 268.337L136.445 268.765L135.809 269.169L135.184 269.538L134.578 269.883L133.989 270.192L133.424 270.471L132.876 270.721L132.347 270.935L131.835 271.113L131.354 271.262L130.884 271.374L130.438 271.452L130.003 271.481L129.593 271.476L129.194 271.416L128.82 271.297L128.463 271.113L128.153 270.863L129.111 269.9L129.206 269.978L129.331 270.043L129.492 270.091L129.706 270.126H129.962L130.265 270.103L130.61 270.049L130.997 269.954L131.413 269.829L131.859 269.669L132.335 269.473L132.841 269.247L133.37 268.985L133.923 268.688L134.5 268.367L135.101 268.01L135.714 267.624L136.35 267.208L136.999 266.768L137.665 266.299L138.349 265.799L139.039 265.276L139.747 264.73L140.461 264.153L141.18 263.553L141.918 262.935L142.656 262.293L143.399 261.627L144.149 260.938L144.898 260.23L145.654 259.505L146.409 258.756L147.367 259.719ZM158.52 240.516L158.77 240.825L158.954 241.175L159.073 241.556L159.133 241.948L159.139 242.364L159.109 242.792L159.032 243.244L158.919 243.707L158.77 244.195L158.592 244.7L158.377 245.229L158.128 245.776L157.848 246.346L157.539 246.935L157.194 247.535L156.825 248.159L156.42 248.801L155.992 249.455L155.54 250.126L155.052 250.81L154.541 251.511L154.005 252.218L153.446 252.938L152.857 253.669L152.25 254.406L151.614 255.149L150.96 255.903L150.282 256.658L149.586 257.419L148.866 258.186L148.128 258.952L147.367 259.719L146.409 258.756L147.159 258.002L147.884 257.253L148.592 256.498L149.276 255.749L149.942 255.006L150.585 254.269L151.209 253.538L151.804 252.813L152.381 252.1L152.929 251.392L153.452 250.703L153.952 250.019L154.422 249.354L154.868 248.706L155.278 248.07L155.665 247.452L156.022 246.857L156.349 246.281L156.64 245.728L156.902 245.199L157.128 244.694L157.324 244.218L157.485 243.767L157.61 243.351L157.705 242.97L157.759 242.626L157.788 242.322L157.783 242.061L157.747 241.853L157.699 241.687L157.634 241.568L157.556 241.473L158.52 240.516Z"/><path fill="#FEFEFE" d="M143.334 257.687C144.461 257.687 145.374 256.792 145.374 255.689C145.374 254.587 144.461 253.692 143.334 253.692C142.207 253.692 141.293 254.587 141.293 255.689C141.293 256.792 142.207 257.687 143.334 257.687Z"/><g filter="url(#filter3_b_7_157)"><rect width="79.45" height="79.45" fill="url(#paint7_linear_7_157)" fill-opacity=".12" transform="matrix(0.866025 0.5 -2.20305e-08 1 77.66 215.725)"/><rect width="79.45" height="79.45" stroke="url(#paint8_linear_7_157)" stroke-linejoin="bevel" stroke-width="2" transform="matrix(0.866025 0.5 -2.20305e-08 1 77.66 215.725)"/></g><g filter="url(#filter4_b_7_157)"><rect width="79.45" height="79.45" fill="url(#paint9_linear_7_157)" fill-opacity=".3" transform="matrix(-0.866025 0.5 2.20305e-08 1 215.19 215.725)"/><rect width="79.45" height="79.45" fill="url(#paint10_radial_7_157)" fill-opacity=".59" transform="matrix(-0.866025 0.5 2.20305e-08 1 215.19 215.725)"/><rect width="79.45" height="79.45" stroke="url(#paint11_linear_7_157)" stroke-linejoin="bevel" stroke-width="2" transform="matrix(-0.866025 0.5 2.20305e-08 1 215.19 215.725)"/></g><g filter="url(#filter5_b_7_157)"><rect width="79.45" height="79.45" fill="url(#paint12_linear_7_157)" fill-opacity=".12" transform="matrix(0.866025 0.5 -0.866025 0.5 146.467 176)"/><rect width="79.45" height="79.45" stroke="url(#paint13_linear_7_157)" stroke-linejoin="bevel" stroke-width="2" transform="matrix(0.866025 0.5 -0.866025 0.5 146.467 176)"/></g><path fill="url(#paint14_linear_7_157)" d="M216.81 251.646C230.761 259.392 240.079 267.953 243.586 276.246C247.093 284.539 244.631 292.191 236.512 298.235C228.393 304.279 214.981 308.444 197.972 310.202C180.963 311.96 161.121 311.233 140.956 308.112C120.791 304.992 101.208 299.618 84.6827 292.671C68.1578 285.723 55.4335 277.514 48.1189 269.082C40.8043 260.65 39.2278 252.372 43.589 245.297C47.9501 238.222 58.053 232.666 72.6199 229.333L74.0417 230.122C59.7683 233.388 49.8691 238.832 45.5959 245.765C41.3227 252.697 42.8673 260.808 50.0345 269.07C57.2017 277.333 69.6695 285.376 85.8613 292.183C102.053 298.991 121.242 304.256 141.001 307.314C160.759 310.371 180.201 311.084 196.867 309.361C213.533 307.639 226.675 303.558 234.63 297.636C242.586 291.714 244.998 284.215 241.562 276.09C238.126 267.964 228.995 259.576 215.325 251.985L216.81 251.646Z"/><circle cx="40.486" cy="232.337" r="6.5" fill="url(#paint15_linear_7_157)"/><circle cx="235.499" cy="282.174" r="3.611" fill="url(#paint16_linear_7_157)"/><path fill="#06F" d="M153.272 445.393C151.914 446.177 150.507 446.733 149.053 447.061C147.584 447.381 146.136 447.513 144.709 447.457C143.295 447.393 141.965 447.185 140.718 446.833C139.471 446.481 138.383 446.037 137.455 445.501L136.997 445.237C136.041 444.685 135.265 444.053 134.67 443.341C134.074 442.629 133.72 441.873 133.61 441.073C133.513 440.265 133.72 439.457 134.233 438.649C134.76 437.833 135.653 437.061 136.914 436.333C138.286 435.541 139.755 434.989 141.321 434.677C142.873 434.357 144.418 434.273 145.956 434.425C147.48 434.569 148.879 434.953 150.154 435.577L146.745 437.545C146.108 437.273 145.401 437.121 144.625 437.089C143.863 437.049 143.087 437.121 142.298 437.305C141.522 437.481 140.787 437.769 140.094 438.169C139.429 438.553 138.951 438.965 138.66 439.405C138.383 439.837 138.272 440.285 138.328 440.749C138.397 441.205 138.633 441.661 139.034 442.117C139.436 442.557 139.99 442.981 140.697 443.389C141.432 443.813 142.201 444.145 143.004 444.385C143.808 444.609 144.625 444.737 145.457 444.769C146.274 444.793 147.085 444.709 147.889 444.517C148.706 444.317 149.468 444.013 150.175 443.605C151.117 443.061 151.741 442.477 152.046 441.853C152.35 441.229 152.336 440.645 152.004 440.101L153.916 441.685L150.3 439.597L153.438 437.785L156.68 439.657C157.082 440.641 156.992 441.629 156.41 442.621C155.828 443.597 154.782 444.521 153.272 445.393ZM146.995 442.273L144.542 440.857L152.898 436.033L155.35 437.449L146.995 442.273ZM163.352 439.117L151.963 432.541L155.288 430.621L166.678 437.197L163.352 439.117ZM152.898 434.833L150.445 433.417L155.288 430.621L157.741 432.037L152.898 434.833ZM152.129 431.149C151.505 431.509 150.882 431.685 150.258 431.677C149.635 431.653 149.073 431.497 148.575 431.209C148.062 430.913 147.792 430.589 147.764 430.237C147.736 429.869 148.034 429.505 148.658 429.145C149.281 428.785 149.905 428.617 150.528 428.641C151.152 428.649 151.72 428.801 152.233 429.097C152.732 429.385 152.995 429.713 153.023 430.081C153.05 430.433 152.752 430.789 152.129 431.149ZM175.075 432.517C173.925 433.181 172.858 433.637 171.874 433.885C170.876 434.125 169.879 434.149 168.881 433.957C167.883 433.749 166.809 433.313 165.659 432.649L155.641 426.865L158.738 425.077L168.881 430.933C169.421 431.245 169.976 431.405 170.544 431.413C171.112 431.405 171.659 431.249 172.186 430.945L173.869 429.973L176.675 431.593L175.075 432.517ZM159.424 431.041L156.992 429.637L165.14 424.933L167.571 426.337L159.424 431.041ZM183.361 427.973C181.74 428.909 180.14 429.449 178.56 429.593C176.98 429.737 175.56 429.477 174.299 428.813L177.251 427.109C177.666 427.285 178.207 427.349 178.872 427.301C179.537 427.237 180.25 426.985 181.013 426.545C181.595 426.209 181.976 425.877 182.156 425.549C182.336 425.205 182.239 424.925 181.865 424.709C181.532 424.517 181.123 424.449 180.638 424.505C180.14 424.553 179.475 424.769 178.643 425.153L177.666 425.621C176.156 426.333 174.743 426.709 173.426 426.749C172.124 426.781 170.987 426.517 170.018 425.957C169.214 425.493 168.743 424.989 168.604 424.445C168.466 423.901 168.611 423.345 169.041 422.777C169.484 422.201 170.163 421.649 171.078 421.121C172.546 420.273 174.057 419.777 175.609 419.633C177.147 419.481 178.546 419.745 179.807 420.425L176.856 422.129C176.426 421.945 175.92 421.877 175.338 421.925C174.743 421.965 174.119 422.173 173.468 422.549C172.955 422.845 172.643 423.137 172.532 423.425C172.422 423.713 172.532 423.953 172.865 424.145C173.184 424.329 173.558 424.393 173.987 424.337C174.417 424.281 174.964 424.101 175.629 423.797L176.606 423.329C178.158 422.609 179.634 422.205 181.033 422.117C182.433 422.029 183.659 422.289 184.712 422.897C185.474 423.337 185.932 423.841 186.084 424.409C186.223 424.969 186.063 425.557 185.606 426.173C185.135 426.781 184.387 427.381 183.361 427.973ZM190.234 423.597L175.061 414.837L178.387 412.917L187.137 417.969L186.638 418.257C185.488 417.593 184.664 416.949 184.165 416.325C183.666 415.701 183.5 415.109 183.666 414.549C183.818 413.981 184.324 413.449 185.183 412.953L185.329 412.869C186.59 412.141 188.003 411.845 189.569 411.981C191.121 412.109 192.756 412.669 194.474 413.661L200.959 417.405L197.633 419.325L190.941 415.461C190.317 415.101 189.631 414.921 188.883 414.921C188.135 414.905 187.463 415.069 186.867 415.413C186.243 415.773 185.938 416.181 185.952 416.637C185.98 417.085 186.326 417.501 186.992 417.885L193.56 421.677L190.234 423.597ZM209.737 412.793C208.739 413.369 207.7 413.793 206.619 414.065C205.525 414.329 204.437 414.461 203.356 414.461C202.289 414.453 201.271 414.329 200.301 414.089C199.317 413.841 198.437 413.493 197.661 413.045L197.183 412.769C196.393 412.313 195.784 411.801 195.354 411.233C194.925 410.649 194.71 410.045 194.71 409.421C194.724 408.789 194.966 408.161 195.437 407.537C195.895 406.905 196.601 406.313 197.557 405.761C198.541 405.193 199.573 404.781 200.654 404.525C201.735 404.253 202.816 404.117 203.897 404.117C204.977 404.117 206.024 404.241 207.035 404.489C208.033 404.729 208.926 405.077 209.716 405.533L210.194 405.809C210.97 406.257 211.573 406.765 212.003 407.333C212.418 407.893 212.626 408.485 212.626 409.109C212.64 409.725 212.418 410.349 211.961 410.981C211.49 411.605 210.749 412.209 209.737 412.793ZM206.931 411.173C207.582 410.797 207.984 410.405 208.137 409.997C208.289 409.589 208.227 409.177 207.95 408.761C207.686 408.337 207.25 407.949 206.64 407.597C205.989 407.221 205.303 406.961 204.583 406.817C203.848 406.665 203.114 406.633 202.379 406.721C201.659 406.801 200.987 407.021 200.363 407.381C199.754 407.733 199.372 408.121 199.22 408.545C199.068 408.969 199.123 409.393 199.386 409.817C199.65 410.225 200.107 410.617 200.758 410.993C201.368 411.345 202.033 411.601 202.753 411.761C203.474 411.921 204.195 411.953 204.915 411.857C205.636 411.761 206.308 411.533 206.931 411.173ZM223.448 404.877C222.464 405.445 221.446 405.849 220.393 406.089C219.34 406.313 218.293 406.405 217.254 406.365C216.215 406.325 215.231 406.173 214.303 405.909C213.36 405.637 212.515 405.285 211.767 404.853L211.372 404.625C210.596 404.177 209.98 403.677 209.522 403.125C209.051 402.565 208.781 401.985 208.712 401.385C208.642 400.785 208.809 400.185 209.21 399.585C209.626 398.977 210.305 398.401 211.247 397.857C212.273 397.265 213.381 396.857 214.573 396.633C215.751 396.401 216.929 396.353 218.106 396.489C219.284 396.625 220.358 396.941 221.328 397.437L218.065 399.321C217.497 399.057 216.859 398.929 216.153 398.937C215.446 398.929 214.76 399.117 214.095 399.501C213.541 399.821 213.215 400.169 213.118 400.545C213.035 400.913 213.146 401.289 213.451 401.673C213.755 402.057 214.24 402.441 214.905 402.825C215.515 403.177 216.153 403.449 216.818 403.641C217.469 403.825 218.113 403.893 218.751 403.845C219.388 403.781 220.005 403.577 220.6 403.233C221.044 402.977 221.342 402.717 221.494 402.453C221.647 402.173 221.674 401.901 221.577 401.637C221.48 401.357 221.266 401.097 220.933 400.857L224.175 398.985C225.076 399.553 225.644 400.185 225.88 400.881C226.101 401.569 226.011 402.261 225.61 402.957C225.194 403.645 224.473 404.285 223.448 404.877ZM238.669 395.633L229.753 394.637L228.152 395.561L226.718 389.381L230.21 387.365L231.498 393.149L229.919 392.189L242.41 393.473L238.669 395.633ZM230.646 400.265L215.473 391.505L218.799 389.585L233.972 398.345L230.646 400.265ZM248.472 389.973L233.299 381.213L236.708 379.245L251.88 388.005L248.472 389.973ZM245.354 384.717L242.527 383.085L248.389 379.701L251.215 381.333L245.354 384.717ZM239.119 381.117L236.292 379.485L242.403 375.957L245.229 377.589L239.119 381.117ZM260.334 383.124L248.944 376.548L252.269 374.628L263.659 381.204L260.334 383.124ZM249.879 378.84L247.427 377.424L252.269 374.628L254.722 376.044L249.879 378.84ZM249.11 375.156C248.487 375.516 247.863 375.692 247.24 375.684C246.616 375.66 246.055 375.504 245.556 375.216C245.043 374.92 244.773 374.596 244.745 374.244C244.718 373.876 245.016 373.512 245.639 373.152C246.263 372.792 246.886 372.624 247.51 372.648C248.133 372.656 248.701 372.808 249.214 373.104C249.713 373.392 249.976 373.72 250.004 374.088C250.032 374.44 249.734 374.796 249.11 375.156ZM266.735 379.429L255.345 372.853L257.985 371.329L262.869 374.149L262.682 374.257C261.518 373.585 260.694 372.941 260.209 372.325C259.738 371.701 259.613 371.101 259.835 370.525C260.056 369.949 260.604 369.409 261.477 368.905L261.622 368.821C262.952 368.053 264.4 367.721 265.966 367.825C267.532 367.913 269.195 368.465 270.954 369.481L277.46 373.237L274.134 375.157L267.442 371.293C266.832 370.941 266.153 370.757 265.405 370.741C264.657 370.725 263.978 370.893 263.368 371.245C262.745 371.605 262.44 372.013 262.454 372.469C262.467 372.909 262.793 373.313 263.43 373.681L270.061 377.509L266.735 379.429ZM287.174 367.629L283.806 365.685L283.245 366.009L279.587 363.897C279.005 363.561 278.43 363.389 277.862 363.381C277.294 363.373 276.705 363.545 276.095 363.897C275.791 364.073 275.396 364.309 274.911 364.605C274.426 364.901 273.934 365.209 273.435 365.529C272.936 365.849 272.486 366.141 272.084 366.405L269.278 364.785C269.569 364.585 269.915 364.353 270.317 364.089C270.719 363.825 271.142 363.557 271.585 363.285C272.029 363.013 272.451 362.761 272.853 362.529C274.017 361.857 275.16 361.389 276.282 361.125C277.419 360.853 278.534 360.793 279.629 360.945C280.71 361.089 281.776 361.465 282.83 362.073L289.813 366.105L287.174 367.629ZM283.827 369.897C283.01 370.369 282.144 370.701 281.229 370.893C280.329 371.077 279.435 371.113 278.548 371.001C277.647 370.881 276.816 370.601 276.054 370.161C275.222 369.681 274.758 369.165 274.661 368.613C274.55 368.053 274.758 367.477 275.285 366.885C275.797 366.285 276.56 365.693 277.571 365.109L280.003 363.705L281.853 364.773L279.4 366.189C278.818 366.525 278.513 366.869 278.486 367.221C278.458 367.557 278.687 367.865 279.171 368.145C279.629 368.409 280.155 368.537 280.751 368.529C281.347 368.505 281.936 368.325 282.518 367.989C282.892 367.773 283.162 367.545 283.328 367.305C283.495 367.049 283.515 366.773 283.391 366.477C283.266 366.181 282.934 365.861 282.393 365.517L284.014 365.541C284.735 366.037 285.206 366.533 285.428 367.029C285.663 367.517 285.649 368.005 285.386 368.493C285.137 368.973 284.617 369.441 283.827 369.897ZM292.635 364.476L281.245 357.9L283.884 356.376L288.769 359.196L288.582 359.304C287.418 358.632 286.593 357.988 286.108 357.372C285.637 356.748 285.513 356.148 285.734 355.572C285.956 354.996 286.503 354.456 287.376 353.952L287.522 353.868C288.852 353.1 290.3 352.768 291.866 352.872C293.431 352.96 295.094 353.512 296.854 354.528L303.36 358.284L300.034 360.204L293.341 356.34C292.732 355.988 292.053 355.804 291.305 355.788C290.556 355.772 289.877 355.94 289.268 356.292C288.644 356.652 288.339 357.06 288.353 357.516C288.367 357.956 288.693 358.36 289.33 358.728L295.96 362.556L292.635 364.476ZM311.701 353.923C310.718 354.491 309.699 354.895 308.646 355.135C307.593 355.359 306.547 355.451 305.508 355.411C304.468 355.371 303.485 355.219 302.556 354.955C301.614 354.683 300.769 354.331 300.02 353.899L299.625 353.671C298.85 353.223 298.233 352.723 297.776 352.171C297.305 351.611 297.034 351.031 296.965 350.431C296.896 349.831 297.062 349.231 297.464 348.631C297.88 348.023 298.559 347.447 299.501 346.903C300.526 346.311 301.635 345.903 302.826 345.679C304.004 345.447 305.182 345.399 306.36 345.535C307.538 345.671 308.611 345.987 309.581 346.483L306.318 348.367C305.75 348.103 305.113 347.975 304.406 347.983C303.699 347.975 303.013 348.163 302.348 348.547C301.794 348.867 301.468 349.215 301.371 349.591C301.288 349.959 301.399 350.335 301.704 350.719C302.009 351.103 302.494 351.487 303.159 351.871C303.769 352.223 304.406 352.495 305.071 352.687C305.722 352.871 306.367 352.939 307.004 352.891C307.641 352.827 308.258 352.623 308.854 352.279C309.297 352.023 309.595 351.763 309.748 351.499C309.9 351.219 309.928 350.947 309.831 350.683C309.734 350.403 309.519 350.143 309.186 349.903L312.429 348.031C313.329 348.599 313.898 349.231 314.133 349.927C314.355 350.615 314.265 351.307 313.863 352.003C313.447 352.691 312.727 353.331 311.701 353.923ZM324.511 346.528C323.542 347.087 322.516 347.487 321.435 347.727C320.368 347.959 319.308 348.059 318.255 348.027C317.202 347.979 316.198 347.831 315.242 347.583C314.285 347.319 313.44 346.975 312.706 346.552L312.29 346.311C311.528 345.871 310.925 345.379 310.482 344.835C310.038 344.275 309.782 343.695 309.713 343.095C309.644 342.495 309.81 341.895 310.212 341.295C310.614 340.679 311.279 340.103 312.207 339.567C313.426 338.863 314.729 338.431 316.115 338.271C317.5 338.095 318.858 338.135 320.188 338.391C321.505 338.639 322.682 339.063 323.722 339.663L324.844 340.311L314.764 346.131L312.872 345.039L320.937 340.383L320.729 341.511C320.05 341.119 319.371 340.839 318.692 340.671C318.013 340.503 317.355 340.459 316.717 340.539C316.08 340.603 315.477 340.799 314.909 341.127C314.327 341.463 313.967 341.823 313.828 342.207C313.69 342.591 313.773 342.991 314.078 343.407C314.369 343.815 314.881 344.231 315.616 344.655C316.295 345.047 316.987 345.335 317.694 345.519C318.387 345.695 319.08 345.743 319.773 345.663C320.465 345.583 321.144 345.351 321.809 344.967C322.419 344.615 322.8 344.259 322.953 343.899C323.105 343.539 323.077 343.219 322.87 342.939L325.925 341.175C326.521 341.711 326.874 342.291 326.985 342.915C327.096 343.539 326.95 344.159 326.548 344.775C326.147 345.391 325.468 345.975 324.511 346.528Z"/><rect width="140.121" height="140.121" x="0" y="2.167" fill="#9FADCC" stroke="#CAD4E8" stroke-width="4.334" transform="matrix(0.866025 0.5 -0.866025 0.5 587.518 263.756)"/><rect width="138.676" height="138.676" x="0" y="2.889" fill="#7197D6" stroke="#D4E4FE" stroke-width="5.778" transform="matrix(0.866025 0.5 -0.866025 0.5 588.143 264.117)"/><rect width="123.507" height="123.507" fill="#fff" transform="matrix(0.866025 0.5 -0.866025 0.5 585.529 253.283)"/><rect width="101.063" height="101.063" fill="#fff" transform="matrix(0.866025 0.5 -0.866025 0.5 585.529 264.505)"/><rect width="99.618" height="99.618" x="0" y=".722" stroke="#CFE2FF" stroke-opacity=".35" stroke-width="1.445" transform="matrix(0.866025 0.5 -0.866025 0.5 586.155 264.867)"/><g filter="url(#filter6_f_7_157)"><ellipse cx="585.342" cy="321.582" fill="#3284FF" rx="28.957" ry="20.263" transform="rotate(30 585.342 321.582)"/></g><path fill="url(#paint17_linear_7_157)" d="M478.569 329.803L585.495 391.537V407.14L478.569 345.406L478.569 329.803Z"/><path fill="url(#paint18_linear_7_157)" d="M692.421 329.803L585.495 391.537V407.14L692.421 345.406V329.803Z"/><path fill="url(#paint19_linear_7_157)" d="M478.569 314.688L585.495 376.422V392.025L478.569 330.291L478.569 314.688Z"/><path fill="#fff" fill-opacity=".58" d="M478.569 314.688L585.495 376.422V392.025L478.569 330.291L478.569 314.688Z"/><path fill="url(#paint20_linear_7_157)" d="M692.421 314.688L585.495 376.422V392.025L692.421 330.291V314.688Z"/><path fill="#fff" fill-opacity=".58" d="M692.421 314.688L585.495 376.422V392.025L692.421 330.291V314.688Z"/><path fill="#9CC4FF" d="M589.981 253.621L591.811 257.565L596.811 254.678L589.981 253.621ZM725.765 332.016L723.935 328.073L718.935 330.96L725.765 332.016ZM725.765 337.233L718.935 338.29L723.935 341.177L725.765 337.233ZM589.981 415.628L596.811 414.572L591.811 411.685L589.981 415.628ZM581.302 415.628L579.472 411.685L574.472 414.572L581.302 415.628ZM445.518 337.233L447.348 341.177L452.348 338.29L445.518 337.233ZM445.518 332.017L452.348 330.96L447.348 328.073L445.518 332.017ZM581.302 253.621L574.472 254.678L579.472 257.565L581.302 253.621ZM593.445 256.121L721.435 330.016L722.301 329.516L594.311 255.621L593.445 256.121ZM721.435 339.233L593.445 413.128L594.311 413.628L722.301 339.733L721.435 339.233ZM577.838 413.128L449.848 339.233L448.982 339.733L576.972 413.628L577.838 413.128ZM449.848 330.017L577.838 256.121L576.972 255.621L448.982 329.517L449.848 330.017Z"/><g filter="url(#filter7_i_7_157)"><rect width="79.45" height="79.45" fill="#3284FF" fill-opacity=".05" transform="matrix(0.866025 0.5 -0.866025 0.5 587.465 255.45)"/></g><g filter="url(#filter8_bii_7_157)"><rect width="79.45" height="79.45" fill="url(#paint21_linear_7_157)" fill-opacity=".25" transform="matrix(0.866025 0.5 -2.20305e-08 1 587.276 176)"/><rect width="79.45" height="79.45" stroke="url(#paint22_linear_7_157)" stroke-linejoin="bevel" stroke-width="1.251" transform="matrix(0.866025 0.5 -2.20305e-08 1 587.276 176)"/></g><path fill="url(#paint23_linear_7_157)" fill-rule="evenodd" d="M589.438 216C589.633 216 589.825 216.005 590.017 216.008C596.524 220.72 598.999 226.732 598.372 233.745L589.266 224.728L579.54 234.36C573.14 230.027 568.093 228.158 566.316 229.92C564.539 231.679 566.426 236.676 570.802 243.014L562.293 251.438C559.31 252.56 556.305 253.779 553.325 255.049C553.234 254.009 553.182 252.958 553.182 251.896C553.182 232.071 569.414 216 589.438 216Z" clip-rule="evenodd"/><path fill="url(#paint24_linear_7_157)" fill-rule="evenodd" d="M553.004 251.55C553.007 251.358 553.015 251.169 553.02 250.977C557.873 244.606 563.982 242.24 571.054 242.965L561.819 251.847L571.402 261.615C566.933 267.888 564.975 272.86 566.727 274.643C568.476 276.43 573.552 274.635 580.014 270.393L588.396 278.938C589.491 281.909 590.675 284.9 591.917 287.872C590.864 287.946 589.803 287.979 588.728 287.965C568.71 287.677 552.716 271.375 553.004 251.55Z" clip-rule="evenodd"/><path fill="url(#paint25_linear_7_157)" fill-rule="evenodd" d="M588.564 287.998C588.369 287.998 588.177 287.995 587.985 287.993C581.479 283.279 579.003 277.267 579.631 270.253L588.736 279.27L598.459 269.641C604.859 273.971 609.91 275.84 611.686 274.081C613.463 272.319 611.577 267.323 607.201 260.987L615.709 252.563C618.692 251.438 621.697 250.222 624.678 248.949C624.768 249.989 624.817 251.04 624.817 252.105C624.817 271.927 608.585 287.998 588.564 287.998Z" clip-rule="evenodd"/><path fill="url(#paint26_linear_7_157)" fill-rule="evenodd" d="M624.996 252.448C624.993 252.64 624.987 252.829 624.982 253.021C620.129 259.395 614.02 261.758 606.948 261.036L616.183 252.151L606.6 242.383C611.067 236.11 613.027 231.138 611.275 229.355C609.523 227.571 604.45 229.366 597.988 233.605L589.603 225.06C588.512 222.092 587.327 219.098 586.085 216.129C587.135 216.052 588.199 216.019 589.271 216.036C609.293 216.321 625.286 232.626 624.996 252.448Z" clip-rule="evenodd"/><path fill="url(#paint27_linear_7_157)" fill-rule="evenodd" d="M583.118 251.619L588.547 246.244C588.901 245.895 589.477 245.895 589.831 246.244L595.26 251.619C595.613 251.968 595.613 252.541 595.26 252.89L589.831 258.265C589.48 258.616 588.901 258.616 588.547 258.265L583.118 252.89C582.765 252.541 582.765 251.968 583.118 251.619Z" clip-rule="evenodd"/><g filter="url(#filter9_b_7_157)"><rect width="79.45" height="79.45" fill="url(#paint28_linear_7_157)" fill-opacity=".2" transform="matrix(0.866025 0.5 -2.20305e-08 1 518.66 215.725)"/><rect width="79.45" height="79.45" stroke="url(#paint29_linear_7_157)" stroke-linejoin="bevel" stroke-width="2" transform="matrix(0.866025 0.5 -2.20305e-08 1 518.66 215.725)"/></g><g filter="url(#filter10_b_7_157)"><rect width="79.45" height="79.45" fill="url(#paint30_linear_7_157)" fill-opacity=".3" transform="matrix(-0.866025 0.5 2.20305e-08 1 656.19 215.725)"/><rect width="79.45" height="79.45" fill="url(#paint31_radial_7_157)" fill-opacity=".59" transform="matrix(-0.866025 0.5 2.20305e-08 1 656.19 215.725)"/><rect width="79.45" height="79.45" stroke="url(#paint32_linear_7_157)" stroke-linejoin="bevel" stroke-width="2" transform="matrix(-0.866025 0.5 2.20305e-08 1 656.19 215.725)"/></g><g filter="url(#filter11_b_7_157)"><rect width="79.45" height="79.45" fill="url(#paint33_linear_7_157)" fill-opacity=".2" transform="matrix(0.866025 0.5 -0.866025 0.5 587.467 176)"/><rect width="79.45" height="79.45" stroke="url(#paint34_linear_7_157)" stroke-linejoin="bevel" stroke-width="2" transform="matrix(0.866025 0.5 -0.866025 0.5 587.467 176)"/></g><path fill="url(#paint35_linear_7_157)" d="M658.472 224.397C671.783 227.339 680.436 232.801 683.338 240.093C686.24 247.386 683.259 256.18 674.774 265.365C666.288 274.549 652.679 283.711 635.667 291.693C618.654 299.674 599.003 306.115 579.198 310.203C559.393 314.291 540.323 315.84 524.401 314.657C508.478 313.473 496.418 309.609 489.745 303.553C483.072 297.497 482.087 289.521 486.912 280.634C491.738 271.747 502.159 262.347 516.857 253.625L518.214 253.924C503.812 262.471 493.601 271.681 488.873 280.389C484.144 289.097 485.11 296.912 491.648 302.846C498.187 308.78 510.004 312.567 525.605 313.726C541.207 314.886 559.892 313.368 579.298 309.362C598.704 305.357 617.959 299.045 634.628 291.225C651.298 283.405 664.633 274.427 672.947 265.428C681.262 256.428 684.182 247.811 681.339 240.666C678.496 233.521 670.017 228.168 656.974 225.286L658.472 224.397Z"/><circle cx="469.218" cy="289.5" r="6.5" fill="url(#paint36_linear_7_157)"/><circle cx="689.329" cy="215.611" r="3.611" fill="url(#paint37_linear_7_157)"/><path fill="#D856C1" d="M612.619 436.526C611.261 437.31 609.855 437.866 608.4 438.194C606.931 438.514 605.483 438.646 604.056 438.59C602.643 438.526 601.312 438.318 600.065 437.966C598.818 437.614 597.731 437.17 596.802 436.634L596.345 436.37C595.389 435.818 594.613 435.186 594.017 434.474C593.421 433.762 593.068 433.006 592.957 432.206C592.86 431.398 593.068 430.59 593.581 429.782C594.107 428.966 595.001 428.194 596.262 427.466C597.634 426.674 599.102 426.122 600.668 425.81C602.22 425.49 603.765 425.406 605.303 425.558C606.827 425.702 608.227 426.086 609.502 426.71L606.093 428.678C605.456 428.406 604.749 428.254 603.973 428.222C603.211 428.182 602.435 428.254 601.645 428.438C600.869 428.614 600.135 428.902 599.442 429.302C598.777 429.686 598.299 430.098 598.008 430.538C597.731 430.97 597.62 431.418 597.675 431.882C597.744 432.338 597.98 432.794 598.382 433.25C598.784 433.69 599.338 434.114 600.045 434.522C600.779 434.946 601.548 435.278 602.352 435.518C603.155 435.742 603.973 435.87 604.804 435.902C605.622 435.926 606.432 435.842 607.236 435.65C608.054 435.45 608.816 435.146 609.522 434.738C610.465 434.194 611.088 433.61 611.393 432.986C611.698 432.362 611.684 431.778 611.351 431.234L613.264 432.818L609.647 430.73L612.786 428.918L616.028 430.79C616.43 431.774 616.34 432.762 615.758 433.754C615.176 434.73 614.13 435.654 612.619 436.526ZM606.342 433.406L603.89 431.99L612.245 427.166L614.698 428.582L606.342 433.406ZM622.7 430.249L611.31 423.673L614.636 421.753L626.026 428.329L622.7 430.249ZM612.245 425.965L609.793 424.549L614.636 421.753L617.088 423.169L612.245 425.965ZM611.476 422.281C610.853 422.641 610.229 422.817 609.606 422.809C608.982 422.785 608.421 422.629 607.922 422.341C607.409 422.045 607.139 421.721 607.112 421.369C607.084 421.001 607.382 420.637 608.005 420.277C608.629 419.917 609.252 419.749 609.876 419.773C610.499 419.781 611.068 419.933 611.58 420.229C612.079 420.517 612.342 420.845 612.37 421.213C612.398 421.565 612.1 421.921 611.476 422.281ZM634.422 423.65C633.272 424.314 632.205 424.77 631.221 425.018C630.224 425.258 629.226 425.282 628.228 425.09C627.231 424.882 626.157 424.446 625.007 423.782L614.989 417.998L618.085 416.21L628.228 422.066C628.769 422.378 629.323 422.538 629.891 422.546C630.459 422.538 631.007 422.382 631.533 422.078L633.217 421.106L636.023 422.726L634.422 423.65ZM618.771 422.174L616.34 420.77L624.487 416.066L626.919 417.47L618.771 422.174ZM642.709 419.105C641.088 420.041 639.487 420.581 637.907 420.725C636.328 420.869 634.908 420.609 633.647 419.945L636.598 418.241C637.014 418.417 637.554 418.481 638.219 418.433C638.884 418.369 639.598 418.117 640.36 417.677C640.942 417.341 641.323 417.009 641.503 416.681C641.683 416.337 641.586 416.057 641.212 415.841C640.88 415.649 640.471 415.581 639.986 415.637C639.487 415.685 638.822 415.901 637.991 416.285L637.014 416.753C635.503 417.465 634.09 417.841 632.774 417.881C631.471 417.913 630.335 417.649 629.365 417.089C628.561 416.625 628.09 416.121 627.952 415.577C627.813 415.033 627.959 414.477 628.388 413.909C628.832 413.333 629.511 412.781 630.425 412.253C631.894 411.405 633.404 410.909 634.956 410.765C636.494 410.613 637.894 410.877 639.155 411.557L636.203 413.261C635.774 413.077 635.268 413.009 634.686 413.057C634.09 413.097 633.467 413.305 632.815 413.681C632.303 413.977 631.991 414.269 631.88 414.557C631.769 414.845 631.88 415.085 632.213 415.277C632.531 415.461 632.905 415.525 633.335 415.469C633.764 415.413 634.312 415.233 634.977 414.929L635.954 414.461C637.506 413.741 638.981 413.337 640.381 413.249C641.78 413.161 643.007 413.421 644.06 414.029C644.822 414.469 645.279 414.973 645.432 415.541C645.57 416.101 645.411 416.689 644.953 417.305C644.482 417.913 643.734 418.513 642.709 419.105ZM649.581 414.729L634.409 405.969L637.734 404.049L646.485 409.101L645.986 409.389C644.836 408.725 644.011 408.081 643.512 407.457C643.014 406.833 642.847 406.241 643.014 405.681C643.166 405.113 643.672 404.581 644.531 404.085L644.676 404.001C645.937 403.273 647.351 402.977 648.916 403.113C650.468 403.241 652.103 403.801 653.822 404.793L660.306 408.537L656.981 410.457L650.288 406.593C649.665 406.233 648.979 406.053 648.23 406.053C647.482 406.037 646.81 406.201 646.214 406.545C645.591 406.905 645.286 407.313 645.3 407.769C645.328 408.217 645.674 408.633 646.339 409.017L652.907 412.809L649.581 414.729ZM669.085 403.925C668.087 404.501 667.048 404.925 665.967 405.197C664.872 405.461 663.784 405.593 662.704 405.593C661.637 405.585 660.618 405.461 659.648 405.221C658.665 404.973 657.785 404.625 657.009 404.177L656.531 403.901C655.741 403.445 655.131 402.933 654.702 402.365C654.272 401.781 654.057 401.177 654.057 400.553C654.071 399.921 654.314 399.293 654.785 398.669C655.242 398.037 655.949 397.445 656.905 396.893C657.889 396.325 658.921 395.913 660.002 395.657C661.082 395.385 662.163 395.249 663.244 395.249C664.325 395.249 665.371 395.373 666.383 395.621C667.38 395.861 668.274 396.209 669.064 396.665L669.542 396.941C670.318 397.389 670.921 397.897 671.35 398.465C671.766 399.025 671.974 399.617 671.974 400.241C671.987 400.857 671.766 401.481 671.309 402.113C670.837 402.737 670.096 403.341 669.085 403.925ZM666.279 402.305C666.93 401.929 667.332 401.537 667.484 401.129C667.637 400.721 667.574 400.309 667.297 399.893C667.034 399.469 666.597 399.081 665.988 398.729C665.336 398.353 664.651 398.093 663.93 397.949C663.196 397.797 662.461 397.765 661.727 397.853C661.006 397.933 660.334 398.153 659.711 398.513C659.101 398.865 658.72 399.253 658.568 399.677C658.415 400.101 658.471 400.525 658.734 400.949C658.997 401.357 659.454 401.749 660.106 402.125C660.715 402.477 661.38 402.733 662.101 402.893C662.821 403.053 663.542 403.085 664.263 402.989C664.983 402.893 665.655 402.665 666.279 402.305ZM682.795 396.009C681.812 396.577 680.793 396.981 679.74 397.221C678.687 397.445 677.641 397.537 676.602 397.497C675.562 397.457 674.579 397.305 673.65 397.041C672.708 396.769 671.863 396.417 671.114 395.985L670.72 395.757C669.944 395.309 669.327 394.809 668.87 394.257C668.399 393.697 668.128 393.117 668.059 392.517C667.99 391.917 668.156 391.317 668.558 390.717C668.974 390.109 669.653 389.533 670.595 388.989C671.62 388.397 672.729 387.989 673.92 387.765C675.098 387.533 676.276 387.485 677.454 387.621C678.632 387.757 679.705 388.073 680.675 388.569L677.412 390.453C676.844 390.189 676.207 390.061 675.5 390.069C674.793 390.061 674.107 390.249 673.442 390.633C672.888 390.953 672.562 391.301 672.465 391.677C672.382 392.045 672.493 392.421 672.798 392.805C673.103 393.189 673.588 393.573 674.253 393.957C674.863 394.309 675.5 394.581 676.165 394.773C676.816 394.957 677.461 395.025 678.098 394.977C678.736 394.913 679.352 394.709 679.948 394.365C680.391 394.109 680.689 393.849 680.842 393.585C680.994 393.305 681.022 393.033 680.925 392.769C680.828 392.489 680.613 392.229 680.28 391.989L683.523 390.117C684.424 390.685 684.992 391.317 685.227 392.013C685.449 392.701 685.359 393.393 684.957 394.089C684.541 394.777 683.821 395.417 682.795 396.009ZM698.017 386.765L689.1 385.769L687.5 386.693L686.065 380.513L689.557 378.497L690.846 384.281L689.266 383.321L701.758 384.605L698.017 386.765ZM689.994 391.397L674.821 382.637L678.146 380.717L693.319 389.477L689.994 391.397ZM713.493 378.286C712.122 379.078 710.75 379.622 709.378 379.918C707.992 380.206 706.683 380.274 705.45 380.122C704.203 379.962 703.087 379.598 702.104 379.03L705.408 377.122C705.796 377.346 706.26 377.494 706.801 377.566C707.355 377.63 707.958 377.594 708.609 377.458C709.246 377.314 709.919 377.038 710.625 376.63C711.263 376.262 711.713 375.906 711.976 375.562C712.239 375.218 712.336 374.898 712.267 374.602C712.184 374.298 711.948 374.034 711.561 373.81C711.076 373.53 710.487 373.43 709.794 373.51C709.087 373.582 708.228 373.862 707.217 374.35L705.969 374.95C704.334 375.75 702.658 376.174 700.94 376.222C699.221 376.27 697.69 375.906 696.346 375.13C695.376 374.57 694.767 373.954 694.517 373.282C694.282 372.602 694.392 371.914 694.85 371.218C695.293 370.514 696.083 369.834 697.219 369.178C698.411 368.49 699.637 368.022 700.898 367.774C702.159 367.51 703.392 367.462 704.598 367.63C705.789 367.79 706.884 368.158 707.882 368.734L704.556 370.654C704.182 370.438 703.752 370.294 703.267 370.222C702.769 370.142 702.242 370.15 701.688 370.246C701.147 370.334 700.614 370.53 700.087 370.834C699.589 371.122 699.249 371.414 699.069 371.71C698.903 371.998 698.882 372.274 699.007 372.538C699.117 372.794 699.339 373.018 699.672 373.21C700.101 373.458 700.628 373.586 701.251 373.594C701.875 373.602 702.561 373.422 703.309 373.054L704.577 372.442C705.782 371.858 707.002 371.434 708.235 371.17C709.454 370.898 710.632 370.818 711.768 370.93C712.905 371.026 713.944 371.346 714.886 371.89C715.856 372.45 716.452 373.09 716.674 373.81C716.895 374.514 716.743 375.25 716.216 376.018C715.69 376.786 714.782 377.542 713.493 378.286ZM725.673 370.798L716.736 363.238L720.373 361.138L733.8 366.106L731.223 367.594L717.817 362.71L719.292 361.858L728.001 369.454L725.673 370.798ZM724.883 371.254L722.098 369.67L724.384 368.35L727.17 369.934L724.883 371.254ZM723.387 372.118L708.941 367.306L712.205 365.422L726.442 370.354L723.387 372.118ZM732.075 367.102L729.331 365.494L731.618 364.174L734.382 365.77L732.075 367.102ZM733.01 366.562L724.156 358.522L727.211 356.758L735.858 364.918L733.01 366.562ZM747.353 358.281L743.986 356.337L743.425 356.661L739.767 354.549C739.185 354.213 738.61 354.041 738.042 354.033C737.474 354.025 736.885 354.197 736.275 354.549C735.97 354.725 735.575 354.961 735.09 355.257C734.605 355.553 734.113 355.861 733.615 356.181C733.116 356.501 732.665 356.793 732.264 357.057L729.458 355.437C729.749 355.237 730.095 355.005 730.497 354.741C730.899 354.477 731.321 354.209 731.765 353.937C732.208 353.665 732.631 353.413 733.033 353.181C734.197 352.509 735.34 352.041 736.462 351.777C737.598 351.505 738.714 351.445 739.808 351.597C740.889 351.741 741.956 352.117 743.009 352.725L749.993 356.757L747.353 358.281ZM744.007 360.549C743.189 361.021 742.323 361.353 741.409 361.545C740.508 361.729 739.614 361.765 738.728 361.653C737.827 361.533 736.996 361.253 736.233 360.813C735.402 360.333 734.938 359.817 734.841 359.265C734.73 358.705 734.938 358.129 735.464 357.537C735.977 356.937 736.739 356.345 737.751 355.761L740.183 354.357L742.032 355.425L739.58 356.841C738.998 357.177 738.693 357.521 738.665 357.873C738.638 358.209 738.866 358.517 739.351 358.797C739.808 359.061 740.335 359.189 740.931 359.181C741.527 359.157 742.116 358.977 742.697 358.641C743.072 358.425 743.342 358.197 743.508 357.957C743.674 357.701 743.695 357.425 743.57 357.129C743.446 356.833 743.113 356.513 742.573 356.169L744.194 356.193C744.915 356.689 745.386 357.185 745.607 357.681C745.843 358.169 745.829 358.657 745.566 359.145C745.316 359.625 744.797 360.093 744.007 360.549ZM756.971 357.528L741.424 348.552L744.064 347.028L748.99 349.872L748.616 350.064C747.535 349.376 746.815 348.688 746.454 348C746.08 347.304 746.052 346.64 746.371 346.008C746.676 345.368 747.272 344.792 748.159 344.28C748.948 343.824 749.808 343.496 750.736 343.296C751.678 343.088 752.641 343.004 753.625 343.044C754.609 343.068 755.572 343.216 756.514 343.488C757.456 343.744 758.343 344.112 759.174 344.592L759.653 344.868C760.47 345.34 761.121 345.852 761.606 346.404C762.077 346.948 762.348 347.504 762.417 348.072C762.5 348.632 762.368 349.188 762.022 349.74C761.676 350.276 761.087 350.784 760.255 351.264C759.396 351.76 758.447 352.108 757.408 352.308C756.369 352.492 755.281 352.496 754.145 352.32C752.995 352.136 751.838 351.732 750.674 351.108L752.835 351.3L760.297 355.608L756.971 357.528ZM756.535 350.196C757.103 349.868 757.456 349.504 757.595 349.104C757.747 348.696 757.692 348.28 757.429 347.856C757.165 347.432 756.708 347.032 756.057 346.656C755.406 346.28 754.72 346.02 753.999 345.876C753.279 345.732 752.579 345.704 751.9 345.792C751.207 345.872 750.57 346.08 749.988 346.416C749.489 346.704 749.136 347.044 748.928 347.436C748.72 347.828 748.699 348.232 748.865 348.648C749.032 349.048 749.427 349.428 750.05 349.788L750.819 350.232C751.415 350.576 752.066 350.792 752.773 350.88C753.48 350.952 754.165 350.924 754.831 350.796C755.496 350.668 756.064 350.468 756.535 350.196Z"/><path fill="url(#paint38_linear_7_157)" d="M257.012 417.964L250.83 407.874L237.17 415.761L254.647 419.33L257.012 417.964ZM420.337 513.626L419.154 514.309L420.337 514.992L421.52 514.309L420.337 513.626ZM579.369 421.808L560.71 424.695L574.37 432.581L579.369 421.808ZM253.464 418.647L419.154 514.309L421.52 512.943L255.829 417.281L253.464 418.647ZM421.52 514.309L569.906 428.638L567.54 427.272L419.154 512.943L421.52 514.309Z"/><rect width="140.121" height="140.121" x="0" y="2.167" fill="#9FADCC" stroke="#CAD4E8" stroke-width="4.334" transform="matrix(0.866025 0.5 -0.866025 0.5 1043.52 260.756)"/><rect width="138.676" height="138.676" x="0" y="2.889" fill="#71C3D6" stroke="#D4F4FE" stroke-width="5.778" transform="matrix(0.866025 0.5 -0.866025 0.5 1044.14 261.117)"/><rect width="123.507" height="123.507" fill="#fff" transform="matrix(0.866025 0.5 -0.866025 0.5 1041.53 250.283)"/><rect width="101.063" height="101.063" fill="#fff" transform="matrix(0.866025 0.5 -0.866025 0.5 1041.53 261.505)"/><rect width="99.618" height="99.618" x="0" y=".722" stroke="#CFFFF4" stroke-opacity=".35" stroke-width="1.445" transform="matrix(0.866025 0.5 -0.866025 0.5 1042.15 261.867)"/><g filter="url(#filter12_f_7_157)"><ellipse cx="1041.34" cy="318.582" fill="#00B5C0" rx="28.957" ry="20.263" transform="rotate(30 1041.34 318.582)"/></g><path fill="url(#paint39_linear_7_157)" d="M934.569 326.803L1041.5 388.537V404.14L934.569 342.406L934.569 326.803Z"/><path fill="url(#paint40_linear_7_157)" d="M1148.42 326.803L1041.5 388.537V404.14L1148.42 342.406V326.803Z"/><path fill="url(#paint41_linear_7_157)" d="M934.569 311.688L1041.5 373.422V389.025L934.569 327.291L934.569 311.688Z"/><path fill="#fff" fill-opacity=".58" d="M934.569 311.688L1041.5 373.422V389.025L934.569 327.291L934.569 311.688Z"/><path fill="url(#paint42_linear_7_157)" d="M1148.42 311.688L1041.5 373.422V389.025L1148.42 327.291V311.688Z"/><path fill="#fff" fill-opacity=".58" d="M1148.42 311.688L1041.5 373.422V389.025L1148.42 327.291V311.688Z"/><path fill="#74D5FF" d="M1045.98 250.621L1047.81 254.565L1052.81 251.678L1045.98 250.621ZM1181.76 329.016L1179.93 325.073L1174.93 327.96L1181.76 329.016ZM1181.76 334.233L1174.93 335.29L1179.93 338.177L1181.76 334.233ZM1045.98 412.628L1052.81 411.572L1047.81 408.685L1045.98 412.628ZM1037.3 412.628L1035.47 408.685L1030.47 411.572L1037.3 412.628ZM901.518 334.233L903.348 338.177L908.348 335.29L901.518 334.233ZM901.518 329.017L908.348 327.96L903.348 325.073L901.518 329.017ZM1037.3 250.621L1030.47 251.678L1035.47 254.565L1037.3 250.621ZM1049.44 253.121L1177.43 327.016L1178.3 326.516L1050.31 252.621L1049.44 253.121ZM1177.43 336.233L1049.44 410.128L1050.31 410.628L1178.3 336.733L1177.43 336.233ZM1033.84 410.128L905.848 336.233L904.982 336.733L1032.97 410.628L1033.84 410.128ZM905.848 327.017L1033.84 253.121L1032.97 252.621L904.982 326.517L905.848 327.017Z"/><g filter="url(#filter13_i_7_157)"><rect width="79.45" height="79.45" fill="#3284FF" fill-opacity=".05" transform="matrix(0.866025 0.5 -0.866025 0.5 1041.68 252.45)"/></g><g filter="url(#filter14_bii_7_157)"><rect width="79.45" height="79.45" fill="url(#paint43_linear_7_157)" fill-opacity=".25" transform="matrix(0.866025 0.5 -2.20305e-08 1 1041.49 173)"/><rect width="79.45" height="79.45" stroke="url(#paint44_linear_7_157)" stroke-linejoin="bevel" stroke-width="1.251" transform="matrix(0.866025 0.5 -2.20305e-08 1 1041.49 173)"/></g><path fill="#000" fill-rule="evenodd" d="M1043.44 215C1043.63 215 1043.83 215.005 1044.02 215.008C1050.52 219.72 1053 225.732 1052.37 232.746L1043.27 223.729L1033.54 233.36C1027.14 229.027 1022.09 227.159 1020.32 228.92C1018.54 230.679 1020.43 235.676 1024.8 242.015L1016.29 250.439C1013.31 251.561 1010.31 252.78 1007.32 254.05C1007.23 253.01 1007.18 251.959 1007.18 250.897C1007.18 231.072 1023.41 215 1043.44 215Z" clip-rule="evenodd"/><path fill="#000" fill-rule="evenodd" d="M1007 250.552C1007.01 250.36 1007.01 250.17 1007.02 249.978C1011.87 243.607 1017.98 241.241 1025.05 241.966L1015.82 250.848L1025.4 260.617C1020.93 266.89 1018.98 271.862 1020.73 273.645C1022.48 275.432 1027.55 273.637 1034.01 269.395L1042.4 277.94C1043.49 280.912 1044.68 283.903 1045.92 286.874C1044.86 286.948 1043.8 286.981 1042.73 286.968C1022.71 286.68 1006.72 270.377 1007 250.552Z" clip-rule="evenodd"/><path fill="#000" fill-rule="evenodd" d="M1042.56 287C1042.37 287 1042.18 286.997 1041.99 286.994C1035.48 282.28 1033 276.268 1033.63 269.254L1042.74 278.271L1052.46 268.642C1058.86 272.972 1063.91 274.841 1065.69 273.082C1067.46 271.321 1065.58 266.324 1061.2 259.988L1069.71 251.564C1072.69 250.439 1075.7 249.223 1078.68 247.95C1078.77 248.99 1078.82 250.041 1078.82 251.105C1078.82 270.928 1062.59 287 1042.56 287Z" clip-rule="evenodd"/><path fill="#000" fill-rule="evenodd" d="M1079 251.448C1078.99 251.64 1078.99 251.83 1078.98 252.022C1074.13 258.396 1068.02 260.759 1060.95 260.037L1070.18 251.152L1060.6 241.383C1065.07 235.11 1067.03 230.138 1065.28 228.355C1063.52 226.571 1058.45 228.366 1051.99 232.605L1043.6 224.06C1042.51 221.091 1041.33 218.097 1040.09 215.128C1041.14 215.052 1042.2 215.019 1043.27 215.035C1063.29 215.321 1079.29 231.626 1079 251.448Z" clip-rule="evenodd"/><path fill="#000" fill-rule="evenodd" d="M1037.12 250.62L1042.55 245.244C1042.9 244.896 1043.48 244.896 1043.83 245.244L1049.26 250.62C1049.61 250.969 1049.61 251.542 1049.26 251.891L1043.83 257.266C1043.48 257.617 1042.9 257.617 1042.55 257.266L1037.12 251.891C1036.77 251.542 1036.77 250.969 1037.12 250.62Z" clip-rule="evenodd"/><g filter="url(#filter15_b_7_157)"><rect width="79.45" height="79.45" fill="url(#paint45_linear_7_157)" fill-opacity=".11" transform="matrix(0.866025 0.5 -2.20305e-08 1 972.878 212.725)"/><rect width="79.45" height="79.45" stroke="url(#paint46_linear_7_157)" stroke-linejoin="bevel" stroke-width="2" transform="matrix(0.866025 0.5 -2.20305e-08 1 972.878 212.725)"/></g><g filter="url(#filter16_b_7_157)"><rect width="79.45" height="79.45" fill="url(#paint47_linear_7_157)" fill-opacity=".38" transform="matrix(-0.866025 0.5 2.20305e-08 1 1110.41 212.725)"/><rect width="79.45" height="79.45" fill="url(#paint48_radial_7_157)" fill-opacity=".59" transform="matrix(-0.866025 0.5 2.20305e-08 1 1110.41 212.725)"/><rect width="79.45" height="79.45" stroke="url(#paint49_linear_7_157)" stroke-linejoin="bevel" stroke-width="2" transform="matrix(-0.866025 0.5 2.20305e-08 1 1110.41 212.725)"/></g><g filter="url(#filter17_b_7_157)"><rect width="79.45" height="79.45" fill="url(#paint50_linear_7_157)" fill-opacity=".32" transform="matrix(0.866025 0.5 -0.866025 0.5 1041.68 173)"/><rect width="79.45" height="79.45" stroke="url(#paint51_linear_7_157)" stroke-linejoin="bevel" stroke-width="2" transform="matrix(0.866025 0.5 -0.866025 0.5 1041.68 173)"/></g><path fill="url(#paint52_linear_7_157)" d="M1113.81 248.646C1127.76 256.392 1137.08 264.953 1140.59 273.246C1144.09 281.539 1141.63 289.191 1133.51 295.235C1125.39 301.279 1111.98 305.444 1094.97 307.202C1077.96 308.96 1058.12 308.233 1037.96 305.112C1017.79 301.992 998.208 296.618 981.683 289.671C965.158 282.723 952.433 274.514 945.119 266.082C937.804 257.65 936.228 249.372 940.589 242.297C944.95 235.222 955.053 229.666 969.62 226.333L971.042 227.122C956.768 230.388 946.869 235.832 942.596 242.765C938.323 249.697 939.867 257.808 947.034 266.07C954.202 274.333 966.669 282.376 982.861 289.183C999.053 295.991 1018.24 301.256 1038 304.314C1057.76 307.371 1077.2 308.084 1093.87 306.361C1110.53 304.639 1123.67 300.558 1131.63 294.636C1139.59 288.714 1142 281.215 1138.56 273.09C1135.13 264.964 1126 256.576 1112.33 248.985L1113.81 248.646Z"/><circle cx="937.486" cy="229.337" r="6.5" fill="url(#paint53_linear_7_157)"/><circle cx="1132.5" cy="279.174" r="3.611" fill="url(#paint54_linear_7_157)"/><path fill="#01D1FF" d="M1066.5 433.977L1051.33 425.217L1056.92 421.989L1075.04 425.853L1075.75 425.445L1075.71 425.901L1062.93 418.521L1066.13 416.673L1081.3 425.433L1075.67 428.685L1057.54 424.821L1056.84 425.229L1056.88 424.773L1069.66 432.153L1066.5 433.977ZM1090.13 420.789C1089.16 421.349 1088.14 421.749 1087.06 421.989C1085.99 422.221 1084.93 422.321 1083.88 422.289C1082.82 422.241 1081.82 422.093 1080.86 421.845C1079.91 421.581 1079.06 421.237 1078.33 420.813L1077.91 420.573C1077.15 420.133 1076.55 419.641 1076.1 419.097C1075.66 418.537 1075.4 417.957 1075.33 417.357C1075.27 416.757 1075.43 416.157 1075.83 415.557C1076.24 414.941 1076.9 414.365 1077.83 413.829C1079.05 413.125 1080.35 412.693 1081.74 412.533C1083.12 412.357 1084.48 412.397 1085.81 412.653C1087.13 412.901 1088.3 413.325 1089.34 413.925L1090.47 414.573L1080.39 420.393L1078.49 419.301L1086.56 414.645L1086.35 415.773C1085.67 415.381 1084.99 415.101 1084.31 414.933C1083.63 414.765 1082.98 414.721 1082.34 414.801C1081.7 414.865 1081.1 415.061 1080.53 415.389C1079.95 415.725 1079.59 416.085 1079.45 416.469C1079.31 416.853 1079.39 417.253 1079.7 417.669C1079.99 418.077 1080.5 418.493 1081.24 418.917C1081.92 419.309 1082.61 419.597 1083.32 419.781C1084.01 419.957 1084.7 420.005 1085.39 419.925C1086.09 419.845 1086.77 419.613 1087.43 419.229C1088.04 418.877 1088.42 418.521 1088.57 418.161C1088.73 417.801 1088.7 417.481 1088.49 417.201L1091.55 415.437C1092.14 415.973 1092.5 416.553 1092.61 417.177C1092.72 417.801 1092.57 418.421 1092.17 419.037C1091.77 419.653 1091.09 420.237 1090.13 420.789ZM1101.55 413.743L1092.61 406.183L1096.25 404.083L1109.67 409.051L1107.1 410.539L1093.69 405.655L1095.17 404.803L1103.88 412.399L1101.55 413.743ZM1100.76 414.199L1097.97 412.615L1100.26 411.295L1103.04 412.879L1100.76 414.199ZM1099.26 415.063L1084.82 410.251L1088.08 408.367L1102.32 413.299L1099.26 415.063ZM1107.95 410.047L1105.21 408.439L1107.49 407.119L1110.26 408.715L1107.95 410.047ZM1108.88 409.507L1100.03 401.467L1103.09 399.703L1111.73 407.863L1108.88 409.507ZM1123.23 401.226L1119.86 399.282L1119.3 399.606L1115.64 397.494C1115.06 397.158 1114.48 396.986 1113.92 396.978C1113.35 396.97 1112.76 397.142 1112.15 397.494C1111.84 397.67 1111.45 397.906 1110.96 398.202C1110.48 398.498 1109.99 398.806 1109.49 399.126C1108.99 399.446 1108.54 399.738 1108.14 400.002L1105.33 398.382C1105.62 398.182 1105.97 397.95 1106.37 397.686C1106.77 397.422 1107.2 397.154 1107.64 396.882C1108.08 396.61 1108.51 396.358 1108.91 396.126C1110.07 395.454 1111.21 394.986 1112.34 394.722C1113.47 394.45 1114.59 394.39 1115.68 394.542C1116.76 394.686 1117.83 395.062 1118.88 395.67L1125.87 399.702L1123.23 401.226ZM1119.88 403.494C1119.06 403.966 1118.2 404.298 1117.28 404.49C1116.38 404.674 1115.49 404.71 1114.6 404.598C1113.7 404.478 1112.87 404.198 1112.11 403.758C1111.28 403.278 1110.81 402.762 1110.72 402.21C1110.6 401.65 1110.81 401.074 1111.34 400.482C1111.85 399.882 1112.61 399.29 1113.63 398.706L1116.06 397.302L1117.91 398.37L1115.45 399.786C1114.87 400.122 1114.57 400.466 1114.54 400.818C1114.51 401.154 1114.74 401.462 1115.23 401.742C1115.68 402.006 1116.21 402.134 1116.81 402.126C1117.4 402.102 1117.99 401.922 1118.57 401.586C1118.95 401.37 1119.22 401.142 1119.38 400.902C1119.55 400.646 1119.57 400.37 1119.44 400.074C1119.32 399.778 1118.99 399.458 1118.45 399.114L1120.07 399.138C1120.79 399.634 1121.26 400.13 1121.48 400.626C1121.72 401.114 1121.7 401.602 1121.44 402.09C1121.19 402.57 1120.67 403.038 1119.88 403.494ZM1128.69 398.073L1117.3 391.497L1119.94 389.973L1124.82 392.793L1124.76 392.829C1123.15 391.901 1122.25 390.989 1122.06 390.093C1121.88 389.189 1122.44 388.361 1123.74 387.609L1124.18 387.357L1127.05 389.013L1126.22 389.493C1125.3 390.021 1124.84 390.573 1124.84 391.149C1124.83 391.717 1125.29 392.269 1126.22 392.805L1132.01 396.153L1128.69 398.073ZM1142.99 390.274C1142.02 390.834 1140.99 391.234 1139.91 391.474C1138.84 391.706 1137.78 391.806 1136.73 391.774C1135.68 391.726 1134.67 391.578 1133.72 391.33C1132.76 391.066 1131.92 390.722 1131.18 390.298L1130.77 390.058C1130 389.618 1129.4 389.126 1128.96 388.582C1128.52 388.022 1128.26 387.442 1128.19 386.842C1128.12 386.242 1128.29 385.642 1128.69 385.042C1129.09 384.426 1129.76 383.85 1130.68 383.314C1131.9 382.61 1133.21 382.178 1134.59 382.018C1135.98 381.842 1137.33 381.882 1138.66 382.138C1139.98 382.386 1141.16 382.81 1142.2 383.41L1143.32 384.058L1133.24 389.878L1131.35 388.786L1139.41 384.13L1139.21 385.258C1138.53 384.866 1137.85 384.586 1137.17 384.418C1136.49 384.25 1135.83 384.206 1135.19 384.286C1134.56 384.35 1133.95 384.546 1133.39 384.874C1132.8 385.21 1132.44 385.57 1132.3 385.954C1132.17 386.338 1132.25 386.738 1132.55 387.154C1132.85 387.562 1133.36 387.978 1134.09 388.402C1134.77 388.794 1135.46 389.082 1136.17 389.266C1136.86 389.442 1137.56 389.49 1138.25 389.41C1138.94 389.33 1139.62 389.098 1140.29 388.714C1140.9 388.362 1141.28 388.006 1141.43 387.646C1141.58 387.286 1141.55 386.966 1141.35 386.686L1144.4 384.922C1145 385.458 1145.35 386.038 1145.46 386.662C1145.57 387.286 1145.43 387.906 1145.02 388.522C1144.62 389.138 1143.94 389.722 1142.99 390.274ZM1162.26 379.15C1160.88 379.942 1159.47 380.486 1158.01 380.782C1156.55 381.07 1155.11 381.17 1153.71 381.082C1152.3 380.986 1150.99 380.766 1149.78 380.422C1148.58 380.062 1147.55 379.634 1146.69 379.138L1146.23 378.874C1145.29 378.33 1144.51 377.706 1143.9 377.002C1143.28 376.29 1142.9 375.538 1142.78 374.746C1142.67 373.946 1142.87 373.142 1143.38 372.334C1143.9 371.51 1144.81 370.718 1146.13 369.958C1147.5 369.166 1148.97 368.614 1150.53 368.302C1152.1 367.99 1153.65 367.918 1155.19 368.086C1156.73 368.238 1158.16 368.634 1159.49 369.274L1156.06 371.254C1155.35 370.958 1154.61 370.786 1153.84 370.738C1153.06 370.69 1152.28 370.758 1151.49 370.942C1150.71 371.118 1149.99 371.402 1149.31 371.794C1148.63 372.186 1148.14 372.602 1147.85 373.042C1147.56 373.482 1147.45 373.93 1147.52 374.386C1147.6 374.834 1147.84 375.286 1148.25 375.742C1148.65 376.182 1149.21 376.61 1149.93 377.026C1150.64 377.434 1151.38 377.758 1152.15 377.998C1152.93 378.222 1153.72 378.358 1154.52 378.406C1155.33 378.438 1156.12 378.366 1156.89 378.19C1157.65 378.006 1158.38 377.714 1159.07 377.314C1160.13 376.706 1160.76 376.046 1160.97 375.334C1161.19 374.614 1160.92 373.95 1160.18 373.342L1163.59 371.374C1164.57 372.086 1165.21 372.89 1165.52 373.786C1165.82 374.666 1165.72 375.574 1165.21 376.51C1164.69 377.43 1163.71 378.31 1162.26 379.15ZM1171.33 373.452L1156.16 364.692L1159.49 362.772L1168.24 367.824L1167.74 368.112C1166.59 367.448 1165.76 366.804 1165.26 366.18C1164.77 365.556 1164.6 364.964 1164.77 364.404C1164.92 363.836 1165.42 363.304 1166.28 362.808L1166.43 362.724C1167.69 361.996 1169.1 361.7 1170.67 361.836C1172.22 361.964 1173.86 362.524 1175.57 363.516L1182.06 367.26L1178.73 369.18L1172.04 365.316C1171.42 364.956 1170.73 364.776 1169.98 364.776C1169.23 364.76 1168.56 364.924 1167.97 365.268C1167.34 365.628 1167.04 366.036 1167.05 366.492C1167.08 366.94 1167.43 367.356 1168.09 367.74L1174.66 371.532L1171.33 373.452ZM1191.77 361.652L1188.41 359.708L1187.84 360.032L1184.19 357.92C1183.6 357.584 1183.03 357.412 1182.46 357.404C1181.89 357.396 1181.3 357.568 1180.69 357.92C1180.39 358.096 1179.99 358.332 1179.51 358.628C1179.02 358.924 1178.53 359.232 1178.03 359.552C1177.53 359.872 1177.08 360.164 1176.68 360.428L1173.88 358.808C1174.17 358.608 1174.51 358.376 1174.92 358.112C1175.32 357.848 1175.74 357.58 1176.18 357.308C1176.63 357.036 1177.05 356.784 1177.45 356.552C1178.62 355.88 1179.76 355.412 1180.88 355.148C1182.02 354.876 1183.13 354.816 1184.23 354.968C1185.31 355.112 1186.38 355.488 1187.43 356.096L1194.41 360.128L1191.77 361.652ZM1188.43 363.92C1187.61 364.392 1186.74 364.724 1185.83 364.916C1184.93 365.1 1184.03 365.136 1183.15 365.024C1182.25 364.904 1181.41 364.624 1180.65 364.184C1179.82 363.704 1179.36 363.188 1179.26 362.636C1179.15 362.076 1179.36 361.5 1179.88 360.908C1180.4 360.308 1181.16 359.716 1182.17 359.132L1184.6 357.728L1186.45 358.796L1184 360.212C1183.42 360.548 1183.11 360.892 1183.08 361.244C1183.06 361.58 1183.29 361.888 1183.77 362.168C1184.23 362.432 1184.75 362.56 1185.35 362.552C1185.95 362.528 1186.53 362.348 1187.12 362.012C1187.49 361.796 1187.76 361.568 1187.93 361.328C1188.09 361.072 1188.11 360.796 1187.99 360.5C1187.86 360.204 1187.53 359.884 1186.99 359.54L1188.61 359.564C1189.33 360.06 1189.8 360.556 1190.03 361.052C1190.26 361.54 1190.25 362.028 1189.98 362.516C1189.74 362.996 1189.22 363.464 1188.43 363.92ZM1197.77 358.187L1186.38 351.611L1189.71 349.691L1201.1 356.267L1197.77 358.187ZM1187.32 353.903L1184.87 352.487L1189.71 349.691L1192.16 351.107L1187.32 353.903ZM1186.55 350.219C1185.93 350.579 1185.3 350.755 1184.68 350.747C1184.06 350.723 1183.49 350.567 1183 350.279C1182.48 349.983 1182.21 349.659 1182.19 349.307C1182.16 348.939 1182.46 348.575 1183.08 348.215C1183.7 347.855 1184.33 347.687 1184.95 347.711C1185.57 347.719 1186.14 347.871 1186.65 348.167C1187.15 348.455 1187.42 348.783 1187.44 349.151C1187.47 349.503 1187.17 349.859 1186.55 350.219ZM1204.18 354.491L1192.79 347.915L1195.42 346.391L1200.31 349.211L1200.12 349.319C1198.96 348.647 1198.13 348.003 1197.65 347.387C1197.18 346.763 1197.05 346.163 1197.27 345.587C1197.5 345.011 1198.04 344.471 1198.92 343.967L1199.06 343.883C1200.39 343.115 1201.84 342.783 1203.41 342.887C1204.97 342.975 1206.63 343.527 1208.39 344.543L1214.9 348.299L1211.57 350.219L1204.88 346.355C1204.27 346.003 1203.59 345.819 1202.84 345.803C1202.1 345.787 1201.42 345.955 1200.81 346.307C1200.18 346.667 1199.88 347.075 1199.89 347.531C1199.91 347.971 1200.23 348.375 1200.87 348.743L1207.5 352.571L1204.18 354.491Z"/><path fill="url(#paint55_linear_7_157)" d="M716.012 412.964L709.83 402.874L696.17 410.761L713.647 414.33L716.012 412.964ZM879.337 508.626L878.154 509.309L879.337 509.992L880.52 509.309L879.337 508.626ZM1038.37 416.808L1019.71 419.695L1033.37 427.581L1038.37 416.808ZM712.464 413.647L878.154 509.309L880.52 507.943L714.829 412.281L712.464 413.647ZM880.52 509.309L1028.91 423.638L1026.54 422.272L878.154 507.943L880.52 509.309Z"/><defs><filter id="filter0_f_7_157" width="165.339" height="156.732" x="61.672" y="243.216" color-interpolation-filters="sRGB" filterUnits="userSpaceOnUse"><feFlood flood-opacity="0" result="BackgroundImageFix"/><feBlend in="SourceGraphic" in2="BackgroundImageFix" mode="normal" result="shape"/><feGaussianBlur result="effect1_foregroundBlur_7_157" stdDeviation="27.807"/></filter><filter id="filter1_i_7_157" width="137.611" height="79.45" x="77.66" y="255.45" color-interpolation-filters="sRGB" filterUnits="userSpaceOnUse"><feFlood flood-opacity="0" result="BackgroundImageFix"/><feBlend in="SourceGraphic" in2="BackgroundImageFix" mode="normal" result="shape"/><feColorMatrix in="SourceAlpha" result="hardAlpha" type="matrix" values="0 0 0 0 0 0 0 0 0 0 0 0 0 0 0 0 0 0 127 0"/><feOffset/><feGaussianBlur stdDeviation="3.44"/><feComposite in2="hardAlpha" k2="-1" k3="1" operator="arithmetic"/><feColorMatrix type="matrix" values="0 0 0 0 1 0 0 0 0 1 0 0 0 0 1 0 0 0 1 0"/><feBlend in2="shape" mode="normal" result="effect1_innerShadow_7_157"/></filter><filter id="filter2_bii_7_157" width="78.556" height="129.093" x="141.401" y="171.041" color-interpolation-filters="sRGB" filterUnits="userSpaceOnUse"><feFlood flood-opacity="0" result="BackgroundImageFix"/><feGaussianBlur in="BackgroundImage" stdDeviation="2.167"/><feComposite in2="SourceAlpha" operator="in" result="effect1_backgroundBlur_7_157"/><feBlend in="SourceGraphic" in2="effect1_backgroundBlur_7_157" mode="normal" result="shape"/><feColorMatrix in="SourceAlpha" result="hardAlpha" type="matrix" values="0 0 0 0 0 0 0 0 0 0 0 0 0 0 0 0 0 0 127 0"/><feOffset/><feGaussianBlur stdDeviation="4.334"/><feComposite in2="hardAlpha" k2="-1" k3="1" operator="arithmetic"/><feColorMatrix type="matrix" values="0 0 0 0 1 0 0 0 0 1 0 0 0 0 1 0 0 0 1 0"/><feBlend in2="shape" mode="normal" result="effect2_innerShadow_7_157"/><feColorMatrix in="SourceAlpha" result="hardAlpha" type="matrix" values="0 0 0 0 0 0 0 0 0 0 0 0 0 0 0 0 0 0 127 0"/><feOffset/><feGaussianBlur stdDeviation="4.334"/><feComposite in2="hardAlpha" k2="-1" k3="1" operator="arithmetic"/><feColorMatrix type="matrix" values="0 0 0 0 1 0 0 0 0 1 0 0 0 0 1 0 0 0 1 0"/><feBlend in2="effect2_innerShadow_7_157" mode="normal" result="effect3_innerShadow_7_157"/></filter><filter id="filter3_b_7_157" width="76.978" height="127.615" x="73.574" y="211.505" color-interpolation-filters="sRGB" filterUnits="userSpaceOnUse"><feFlood flood-opacity="0" result="BackgroundImageFix"/><feGaussianBlur in="BackgroundImage" stdDeviation="1.61"/><feComposite in2="SourceAlpha" operator="in" result="effect1_backgroundBlur_7_157"/><feBlend in="SourceGraphic" in2="effect1_backgroundBlur_7_157" mode="normal" result="shape"/></filter><filter id="filter4_b_7_157" width="76.978" height="127.615" x="142.299" y="211.505" color-interpolation-filters="sRGB" filterUnits="userSpaceOnUse"><feFlood flood-opacity="0" result="BackgroundImageFix"/><feGaussianBlur in="BackgroundImage" stdDeviation="1.61"/><feComposite in2="SourceAlpha" operator="in" result="effect1_backgroundBlur_7_157"/><feBlend in="SourceGraphic" in2="effect1_backgroundBlur_7_157" mode="normal" result="shape"/></filter><filter id="filter5_b_7_157" width="145.783" height="86.89" x="73.575" y="172.28" color-interpolation-filters="sRGB" filterUnits="userSpaceOnUse"><feFlood flood-opacity="0" result="BackgroundImageFix"/><feGaussianBlur in="BackgroundImage" stdDeviation="1.61"/><feComposite in2="SourceAlpha" operator="in" result="effect1_backgroundBlur_7_157"/><feBlend in="SourceGraphic" in2="effect1_backgroundBlur_7_157" mode="normal" result="shape"/></filter><filter id="filter6_f_7_157" width="165.339" height="156.732" x="502.672" y="243.216" color-interpolation-filters="sRGB" filterUnits="userSpaceOnUse"><feFlood flood-opacity="0" result="BackgroundImageFix"/><feBlend in="SourceGraphic" in2="BackgroundImageFix" mode="normal" result="shape"/><feGaussianBlur result="effect1_foregroundBlur_7_157" stdDeviation="27.807"/></filter><filter id="filter7_i_7_157" width="137.611" height="79.45" x="518.66" y="255.45" color-interpolation-filters="sRGB" filterUnits="userSpaceOnUse"><feFlood flood-opacity="0" result="BackgroundImageFix"/><feBlend in="SourceGraphic" in2="BackgroundImageFix" mode="normal" result="shape"/><feColorMatrix in="SourceAlpha" result="hardAlpha" type="matrix" values="0 0 0 0 0 0 0 0 0 0 0 0 0 0 0 0 0 0 127 0"/><feOffset/><feGaussianBlur stdDeviation="3.44"/><feComposite in2="hardAlpha" k2="-1" k3="1" operator="arithmetic"/><feColorMatrix type="matrix" values="0 0 0 0 1 0 0 0 0 1 0 0 0 0 1 0 0 0 1 0"/><feBlend in2="shape" mode="normal" result="effect1_innerShadow_7_157"/></filter><filter id="filter8_bii_7_157" width="78.556" height="129.093" x="582.401" y="171.041" color-interpolation-filters="sRGB" filterUnits="userSpaceOnUse"><feFlood flood-opacity="0" result="BackgroundImageFix"/><feGaussianBlur in="BackgroundImage" stdDeviation="2.167"/><feComposite in2="SourceAlpha" operator="in" result="effect1_backgroundBlur_7_157"/><feBlend in="SourceGraphic" in2="effect1_backgroundBlur_7_157" mode="normal" result="shape"/><feColorMatrix in="SourceAlpha" result="hardAlpha" type="matrix" values="0 0 0 0 0 0 0 0 0 0 0 0 0 0 0 0 0 0 127 0"/><feOffset/><feGaussianBlur stdDeviation="4.334"/><feComposite in2="hardAlpha" k2="-1" k3="1" operator="arithmetic"/><feColorMatrix type="matrix" values="0 0 0 0 1 0 0 0 0 1 0 0 0 0 1 0 0 0 1 0"/><feBlend in2="shape" mode="normal" result="effect2_innerShadow_7_157"/><feColorMatrix in="SourceAlpha" result="hardAlpha" type="matrix" values="0 0 0 0 0 0 0 0 0 0 0 0 0 0 0 0 0 0 127 0"/><feOffset/><feGaussianBlur stdDeviation="4.334"/><feComposite in2="hardAlpha" k2="-1" k3="1" operator="arithmetic"/><feColorMatrix type="matrix" values="0 0 0 0 1 0 0 0 0 1 0 0 0 0 1 0 0 0 1 0"/><feBlend in2="effect2_innerShadow_7_157" mode="normal" result="effect3_innerShadow_7_157"/></filter><filter id="filter9_b_7_157" width="76.978" height="127.615" x="514.574" y="211.505" color-interpolation-filters="sRGB" filterUnits="userSpaceOnUse"><feFlood flood-opacity="0" result="BackgroundImageFix"/><feGaussianBlur in="BackgroundImage" stdDeviation="1.61"/><feComposite in2="SourceAlpha" operator="in" result="effect1_backgroundBlur_7_157"/><feBlend in="SourceGraphic" in2="effect1_backgroundBlur_7_157" mode="normal" result="shape"/></filter><filter id="filter10_b_7_157" width="76.978" height="127.615" x="583.299" y="211.505" color-interpolation-filters="sRGB" filterUnits="userSpaceOnUse"><feFlood flood-opacity="0" result="BackgroundImageFix"/><feGaussianBlur in="BackgroundImage" stdDeviation="1.61"/><feComposite in2="SourceAlpha" operator="in" result="effect1_backgroundBlur_7_157"/><feBlend in="SourceGraphic" in2="effect1_backgroundBlur_7_157" mode="normal" result="shape"/></filter><filter id="filter11_b_7_157" width="145.783" height="86.89" x="514.575" y="172.28" color-interpolation-filters="sRGB" filterUnits="userSpaceOnUse"><feFlood flood-opacity="0" result="BackgroundImageFix"/><feGaussianBlur in="BackgroundImage" stdDeviation="1.61"/><feComposite in2="SourceAlpha" operator="in" result="effect1_backgroundBlur_7_157"/><feBlend in="SourceGraphic" in2="effect1_backgroundBlur_7_157" mode="normal" result="shape"/></filter><filter id="filter12_f_7_157" width="165.339" height="156.732" x="958.672" y="240.216" color-interpolation-filters="sRGB" filterUnits="userSpaceOnUse"><feFlood flood-opacity="0" result="BackgroundImageFix"/><feBlend in="SourceGraphic" in2="BackgroundImageFix" mode="normal" result="shape"/><feGaussianBlur result="effect1_foregroundBlur_7_157" stdDeviation="27.807"/></filter><filter id="filter13_i_7_157" width="137.611" height="79.45" x="972.878" y="252.45" color-interpolation-filters="sRGB" filterUnits="userSpaceOnUse"><feFlood flood-opacity="0" result="BackgroundImageFix"/><feBlend in="SourceGraphic" in2="BackgroundImageFix" mode="normal" result="shape"/><feColorMatrix in="SourceAlpha" result="hardAlpha" type="matrix" values="0 0 0 0 0 0 0 0 0 0 0 0 0 0 0 0 0 0 127 0"/><feOffset/><feGaussianBlur stdDeviation="3.44"/><feComposite in2="hardAlpha" k2="-1" k3="1" operator="arithmetic"/><feColorMatrix type="matrix" values="0 0 0 0 1 0 0 0 0 1 0 0 0 0 1 0 0 0 1 0"/><feBlend in2="shape" mode="normal" result="effect1_innerShadow_7_157"/></filter><filter id="filter14_bii_7_157" width="78.556" height="129.093" x="1036.62" y="168.041" color-interpolation-filters="sRGB" filterUnits="userSpaceOnUse"><feFlood flood-opacity="0" result="BackgroundImageFix"/><feGaussianBlur in="BackgroundImage" stdDeviation="2.167"/><feComposite in2="SourceAlpha" operator="in" result="effect1_backgroundBlur_7_157"/><feBlend in="SourceGraphic" in2="effect1_backgroundBlur_7_157" mode="normal" result="shape"/><feColorMatrix in="SourceAlpha" result="hardAlpha" type="matrix" values="0 0 0 0 0 0 0 0 0 0 0 0 0 0 0 0 0 0 127 0"/><feOffset/><feGaussianBlur stdDeviation="4.334"/><feComposite in2="hardAlpha" k2="-1" k3="1" operator="arithmetic"/><feColorMatrix type="matrix" values="0 0 0 0 1 0 0 0 0 1 0 0 0 0 1 0 0 0 1 0"/><feBlend in2="shape" mode="normal" result="effect2_innerShadow_7_157"/><feColorMatrix in="SourceAlpha" result="hardAlpha" type="matrix" values="0 0 0 0 0 0 0 0 0 0 0 0 0 0 0 0 0 0 127 0"/><feOffset/><feGaussianBlur stdDeviation="4.334"/><feComposite in2="hardAlpha" k2="-1" k3="1" operator="arithmetic"/><feColorMatrix type="matrix" values="0 0 0 0 1 0 0 0 0 1 0 0 0 0 1 0 0 0 1 0"/><feBlend in2="effect2_innerShadow_7_157" mode="normal" result="effect3_innerShadow_7_157"/></filter><filter id="filter15_b_7_157" width="76.978" height="127.615" x="968.792" y="208.505" color-interpolation-filters="sRGB" filterUnits="userSpaceOnUse"><feFlood flood-opacity="0" result="BackgroundImageFix"/><feGaussianBlur in="BackgroundImage" stdDeviation="1.61"/><feComposite in2="SourceAlpha" operator="in" result="effect1_backgroundBlur_7_157"/><feBlend in="SourceGraphic" in2="effect1_backgroundBlur_7_157" mode="normal" result="shape"/></filter><filter id="filter16_b_7_157" width="76.978" height="127.615" x="1037.52" y="208.505" color-interpolation-filters="sRGB" filterUnits="userSpaceOnUse"><feFlood flood-opacity="0" result="BackgroundImageFix"/><feGaussianBlur in="BackgroundImage" stdDeviation="1.61"/><feComposite in2="SourceAlpha" operator="in" result="effect1_backgroundBlur_7_157"/><feBlend in="SourceGraphic" in2="effect1_backgroundBlur_7_157" mode="normal" result="shape"/></filter><filter id="filter17_b_7_157" width="145.783" height="86.89" x="968.792" y="169.28" color-interpolation-filters="sRGB" filterUnits="userSpaceOnUse"><feFlood flood-opacity="0" result="BackgroundImageFix"/><feGaussianBlur in="BackgroundImage" stdDeviation="1.61"/><feComposite in2="SourceAlpha" operator="in" result="effect1_backgroundBlur_7_157"/><feBlend in="SourceGraphic" in2="effect1_backgroundBlur_7_157" mode="normal" result="shape"/></filter><linearGradient id="paint0_linear_7_157" x1="40.125" x2="251.395" y1="368.124" y2="368.256" gradientUnits="userSpaceOnUse"><stop stop-color="#F4F6FF"/><stop offset=".495" stop-color="#9BA5FF"/><stop offset=".495" stop-color="#E8EAFF"/><stop offset="1" stop-color="#EFF1FF"/></linearGradient><linearGradient id="paint1_linear_7_157" x1="40.125" x2="251.395" y1="368.124" y2="368.256" gradientUnits="userSpaceOnUse"><stop stop-color="#F4F6FF"/><stop offset=".495" stop-color="#9BA5FF"/><stop offset=".495" stop-color="#E8EAFF"/><stop offset="1" stop-color="#EFF1FF"/></linearGradient><linearGradient id="paint2_linear_7_157" x1="40.125" x2="251.395" y1="353.009" y2="353.141" gradientUnits="userSpaceOnUse"><stop stop-color="#F4F6FF"/><stop offset=".495" stop-color="#9BA5FF"/><stop offset=".495" stop-color="#E8EAFF"/><stop offset="1" stop-color="#EFF1FF"/></linearGradient><linearGradient id="paint3_linear_7_157" x1="40.125" x2="251.395" y1="353.009" y2="353.141" gradientUnits="userSpaceOnUse"><stop stop-color="#F4F6FF"/><stop offset=".495" stop-color="#9BA5FF"/><stop offset=".495" stop-color="#E8EAFF"/><stop offset="1" stop-color="#EFF1FF"/></linearGradient><linearGradient id="paint4_linear_7_157" x1="39.725" x2="39.725" y1="0" y2="79.45" gradientUnits="userSpaceOnUse"><stop stop-color="#325FFF" stop-opacity=".31"/><stop offset="1" stop-color="#005CE7"/></linearGradient><linearGradient id="paint5_linear_7_157" x1="79.231" x2="63.804" y1=".11" y2="-1.413" gradientUnits="userSpaceOnUse"><stop stop-color="#fff"/><stop offset="1" stop-color="#fff" stop-opacity="0"/></linearGradient><linearGradient id="paint6_linear_7_157" x1="180.001" x2="108" y1="255.001" y2="255.001" gradientUnits="userSpaceOnUse"><stop stop-color="#D717FF"/><stop offset="1" stop-color="#37F"/></linearGradient><linearGradient id="paint7_linear_7_157" x1="11.259" x2="49.1" y1="7.01" y2="89.678" gradientUnits="userSpaceOnUse"><stop stop-color="#76ADFF"/><stop offset=".387" stop-color="#3253FF"/><stop offset="1" stop-color="#fff"/></linearGradient><linearGradient id="paint8_linear_7_157" x1="79.231" x2="56.956" y1=".11" y2="57.937" gradientUnits="userSpaceOnUse"><stop stop-color="#fff"/><stop offset="1" stop-color="#fff" stop-opacity="0"/></linearGradient><linearGradient id="paint9_linear_7_157" x1="24.948" x2="51.856" y1="29.418" y2="85.939" gradientUnits="userSpaceOnUse"><stop offset=".557" stop-color="#326BFF"/><stop offset="1" stop-color="#C2E2FF"/></linearGradient><radialGradient id="paint10_radial_7_157" cx="0" cy="0" r="1" gradientTransform="translate(49.5509 77.7871) rotate(-57.3832) scale(75.5737 41.2623)" gradientUnits="userSpaceOnUse"><stop stop-color="#EECBFF"/><stop offset="1" stop-color="#fff" stop-opacity="0"/></radialGradient><linearGradient id="paint11_linear_7_157" x1="79.231" x2="45.685" y1=".11" y2="27.452" gradientUnits="userSpaceOnUse"><stop stop-color="#fff"/><stop offset="1" stop-color="#fff" stop-opacity="0"/></linearGradient><linearGradient id="paint12_linear_7_157" x1="57.761" x2="75.198" y1="80.915" y2="-1.143" gradientUnits="userSpaceOnUse"><stop stop-color="#76ADFF"/><stop offset="1" stop-color="#5B32FF"/></linearGradient><linearGradient id="paint13_linear_7_157" x1="79.34" x2="51.748" y1="79.559" y2="56.276" gradientUnits="userSpaceOnUse"><stop stop-color="#fff"/><stop offset="1" stop-color="#fff" stop-opacity="0"/></linearGradient><linearGradient id="paint14_linear_7_157" x1="44.929" x2="279.586" y1="230.458" y2="276.051" gradientUnits="userSpaceOnUse"><stop stop-color="#5B32FF"/><stop offset=".156" stop-color="#fff"/><stop offset=".661" stop-color="#fff"/><stop offset="1" stop-color="#3284FF"/></linearGradient><linearGradient id="paint15_linear_7_157" x1="40.486" x2="40.486" y1="225.837" y2="238.838" gradientUnits="userSpaceOnUse"><stop stop-color="#B0B4FF"/><stop offset=".26" stop-color="#5F6DEF"/></linearGradient><linearGradient id="paint16_linear_7_157" x1="235.499" x2="235.499" y1="278.563" y2="285.785" gradientUnits="userSpaceOnUse"><stop stop-color="#66A3FF"/><stop offset="1" stop-color="#015BE2"/></linearGradient><linearGradient id="paint17_linear_7_157" x1="481.125" x2="692.395" y1="368.124" y2="368.256" gradientUnits="userSpaceOnUse"><stop stop-color="#F4F8FF"/><stop offset=".495" stop-color="#9BC3FF"/><stop offset=".495" stop-color="#E8F0FF"/><stop offset="1" stop-color="#EFF3FF"/></linearGradient><linearGradient id="paint18_linear_7_157" x1="481.125" x2="692.395" y1="368.124" y2="368.256" gradientUnits="userSpaceOnUse"><stop stop-color="#F4F8FF"/><stop offset=".495" stop-color="#9BC3FF"/><stop offset=".495" stop-color="#E8F0FF"/><stop offset="1" stop-color="#EFF3FF"/></linearGradient><linearGradient id="paint19_linear_7_157" x1="481.125" x2="692.395" y1="353.009" y2="353.141" gradientUnits="userSpaceOnUse"><stop stop-color="#F4F8FF"/><stop offset=".495" stop-color="#9BC3FF"/><stop offset=".495" stop-color="#E8F0FF"/><stop offset="1" stop-color="#EFF3FF"/></linearGradient><linearGradient id="paint20_linear_7_157" x1="481.125" x2="692.395" y1="353.009" y2="353.141" gradientUnits="userSpaceOnUse"><stop stop-color="#F4F8FF"/><stop offset=".495" stop-color="#9BC3FF"/><stop offset=".495" stop-color="#E8F0FF"/><stop offset="1" stop-color="#EFF3FF"/></linearGradient><linearGradient id="paint21_linear_7_157" x1="39.725" x2="39.725" y1="0" y2="79.45" gradientUnits="userSpaceOnUse"><stop stop-color="#325FFF" stop-opacity=".31"/><stop offset="1" stop-color="#005CE7"/></linearGradient><linearGradient id="paint22_linear_7_157" x1="79.231" x2="63.804" y1=".11" y2="-1.413" gradientUnits="userSpaceOnUse"><stop stop-color="#fff"/><stop offset="1" stop-color="#fff" stop-opacity="0"/></linearGradient><linearGradient id="paint23_linear_7_157" x1="553.183" x2="616.686" y1="235.525" y2="237.82" gradientUnits="userSpaceOnUse"><stop stop-color="#A0D9F6"/><stop offset="1" stop-color="#4A7FFE"/></linearGradient><linearGradient id="paint24_linear_7_157" x1="553.24" x2="582.713" y1="259.898" y2="283.027" gradientUnits="userSpaceOnUse"><stop stop-color="#4A7FFE"/><stop offset="1" stop-color="#D856C1"/></linearGradient><linearGradient id="paint25_linear_7_157" x1="624.885" x2="573.96" y1="265.785" y2="256.323" gradientUnits="userSpaceOnUse"><stop stop-color="#BF0BE0"/><stop offset="1" stop-color="#D6D6D6"/></linearGradient><linearGradient id="paint26_linear_7_157" x1="619.644" x2="620.107" y1="255.02" y2="215.245" gradientUnits="userSpaceOnUse"><stop stop-color="#D856C1"/><stop offset="1" stop-color="#F2F8FB"/></linearGradient><linearGradient id="paint27_linear_7_157" x1="594.978" x2="582.022" y1="263.276" y2="246.773" gradientUnits="userSpaceOnUse"><stop stop-color="#CF0FE9"/><stop offset="1" stop-color="#A0D9F6"/></linearGradient><linearGradient id="paint28_linear_7_157" x1="11.259" x2="49.1" y1="7.01" y2="89.678" gradientUnits="userSpaceOnUse"><stop stop-color="#32DAFF"/><stop offset=".495" stop-color="#3284FF"/><stop offset="1" stop-color="#B7FFFB"/></linearGradient><linearGradient id="paint29_linear_7_157" x1="79.231" x2="56.956" y1=".11" y2="57.937" gradientUnits="userSpaceOnUse"><stop stop-color="#fff"/><stop offset="1" stop-color="#fff" stop-opacity="0"/></linearGradient><linearGradient id="paint30_linear_7_157" x1="24.948" x2="66.769" y1="29.418" y2="96.497" gradientUnits="userSpaceOnUse"><stop offset=".557" stop-color="#3284FF"/><stop offset="1" stop-color="#32DAFF"/></linearGradient><radialGradient id="paint31_radial_7_157" cx="0" cy="0" r="1" gradientTransform="translate(49.5509 77.7871) rotate(-158.782) scale(17.4458 23.3316)" gradientUnits="userSpaceOnUse"><stop stop-color="#CBFCFF"/><stop offset="1" stop-color="#fff" stop-opacity=".17"/></radialGradient><linearGradient id="paint32_linear_7_157" x1="79.231" x2="45.685" y1=".11" y2="27.452" gradientUnits="userSpaceOnUse"><stop stop-color="#fff"/><stop offset="1" stop-color="#fff" stop-opacity="0"/></linearGradient><linearGradient id="paint33_linear_7_157" x1="57.761" x2="75.198" y1="80.915" y2="-1.143" gradientUnits="userSpaceOnUse"><stop stop-color="#32DAFF"/><stop offset="1" stop-color="#3284FF"/></linearGradient><linearGradient id="paint34_linear_7_157" x1="79.34" x2="51.748" y1="79.559" y2="56.276" gradientUnits="userSpaceOnUse"><stop stop-color="#fff"/><stop offset="1" stop-color="#fff" stop-opacity="0"/></linearGradient><linearGradient id="paint35_linear_7_157" x1="479.026" x2="711.205" y1="275.098" y2="218.215" gradientUnits="userSpaceOnUse"><stop stop-color="#3284FF"/><stop offset=".156" stop-color="#fff"/><stop offset=".661" stop-color="#fff"/><stop offset="1" stop-color="#32F3FF"/></linearGradient><linearGradient id="paint36_linear_7_157" x1="469.218" x2="469.218" y1="283" y2="296.001" gradientUnits="userSpaceOnUse"><stop stop-color="#66A3FF"/><stop offset="1" stop-color="#015BE2"/></linearGradient><linearGradient id="paint37_linear_7_157" x1="689.329" x2="689.329" y1="212" y2="219.223" gradientUnits="userSpaceOnUse"><stop stop-color="#87F7FF"/><stop offset="1" stop-color="#03CBDA"/></linearGradient><linearGradient id="paint38_linear_7_157" x1="323.516" x2="411.685" y1="365.909" y2="518.621" gradientUnits="userSpaceOnUse"><stop stop-color="#4464F9"/><stop offset="1" stop-color="#D856C1"/></linearGradient><linearGradient id="paint39_linear_7_157" x1="937.125" x2="1148.39" y1="365.124" y2="365.256" gradientUnits="userSpaceOnUse"><stop stop-color="#F4FFFD"/><stop offset=".495" stop-color="#9BE1FF"/><stop offset=".495" stop-color="#E8FFFE"/><stop offset="1" stop-color="#EFFDFF"/></linearGradient><linearGradient id="paint40_linear_7_157" x1="937.125" x2="1148.39" y1="365.124" y2="365.256" gradientUnits="userSpaceOnUse"><stop stop-color="#F4FFFD"/><stop offset=".495" stop-color="#9BE1FF"/><stop offset=".495" stop-color="#E8FFFE"/><stop offset="1" stop-color="#EFFDFF"/></linearGradient><linearGradient id="paint41_linear_7_157" x1="937.125" x2="1148.39" y1="350.009" y2="350.141" gradientUnits="userSpaceOnUse"><stop stop-color="#F4FFFD"/><stop offset=".495" stop-color="#9BE1FF"/><stop offset=".495" stop-color="#E8FFFE"/><stop offset="1" stop-color="#EFFDFF"/></linearGradient><linearGradient id="paint42_linear_7_157" x1="937.125" x2="1148.39" y1="350.009" y2="350.141" gradientUnits="userSpaceOnUse"><stop stop-color="#F4FFFD"/><stop offset=".495" stop-color="#9BE1FF"/><stop offset=".495" stop-color="#E8FFFE"/><stop offset="1" stop-color="#EFFDFF"/></linearGradient><linearGradient id="paint43_linear_7_157" x1="39.725" x2="39.725" y1="0" y2="79.45" gradientUnits="userSpaceOnUse"><stop stop-color="#43BBFF"/><stop offset="1" stop-color="#32FF5F"/></linearGradient><linearGradient id="paint44_linear_7_157" x1="79.231" x2="63.804" y1=".11" y2="-1.413" gradientUnits="userSpaceOnUse"><stop stop-color="#fff"/><stop offset="1" stop-color="#fff" stop-opacity="0"/></linearGradient><linearGradient id="paint45_linear_7_157" x1="11.259" x2="49.1" y1="7.01" y2="89.678" gradientUnits="userSpaceOnUse"><stop stop-color="#B7FFFB"/><stop offset=".495" stop-color="#18E3FF"/><stop offset="1" stop-color="#D8FDFF"/></linearGradient><linearGradient id="paint46_linear_7_157" x1="79.231" x2="56.956" y1=".11" y2="57.937" gradientUnits="userSpaceOnUse"><stop stop-color="#fff"/><stop offset="1" stop-color="#fff" stop-opacity="0"/></linearGradient><linearGradient id="paint47_linear_7_157" x1="24.948" x2="55.644" y1="29.418" y2="63.563" gradientUnits="userSpaceOnUse"><stop offset=".557" stop-color="#18E3FF"/><stop offset="1" stop-color="#B0FAFF"/></linearGradient><radialGradient id="paint48_radial_7_157" cx="0" cy="0" r="1" gradientTransform="translate(49.5509 77.7871) rotate(-158.782) scale(17.4458 23.3316)" gradientUnits="userSpaceOnUse"><stop stop-color="#CBFCFF"/><stop offset="1" stop-color="#fff" stop-opacity=".17"/></radialGradient><linearGradient id="paint49_linear_7_157" x1="79.231" x2="45.685" y1=".11" y2="27.452" gradientUnits="userSpaceOnUse"><stop stop-color="#fff"/><stop offset="1" stop-color="#fff" stop-opacity="0"/></linearGradient><linearGradient id="paint50_linear_7_157" x1="57.761" x2="75.198" y1="80.915" y2="-1.143" gradientUnits="userSpaceOnUse"><stop stop-color="#B7FFFB"/><stop offset="1" stop-color="#A8FFBB"/></linearGradient><linearGradient id="paint51_linear_7_157" x1="79.34" x2="51.748" y1="79.559" y2="56.276" gradientUnits="userSpaceOnUse"><stop stop-color="#fff"/><stop offset="1" stop-color="#fff" stop-opacity="0"/></linearGradient><linearGradient id="paint52_linear_7_157" x1="941.929" x2="1176.59" y1="227.458" y2="273.051" gradientUnits="userSpaceOnUse"><stop stop-color="#32DAFF"/><stop offset=".156" stop-color="#fff"/><stop offset=".661" stop-color="#fff"/><stop offset="1" stop-color="#32FFDA"/></linearGradient><linearGradient id="paint53_linear_7_157" x1="937.486" x2="937.486" y1="222.837" y2="235.838" gradientUnits="userSpaceOnUse"><stop stop-color="#87F7FF"/><stop offset="1" stop-color="#03CBDA"/></linearGradient><linearGradient id="paint54_linear_7_157" x1="1132.5" x2="1132.5" y1="275.562" y2="282.785" gradientUnits="userSpaceOnUse"><stop stop-color="#87FFDB"/><stop offset="1" stop-color="#03DAA6"/></linearGradient><linearGradient id="paint55_linear_7_157" x1="782.516" x2="870.685" y1="360.909" y2="513.621" gradientUnits="userSpaceOnUse"><stop stop-color="#3284FF"/><stop offset="1" stop-color="#01D1FF"/></linearGradient></defs></svg>