<svg xmlns="http://www.w3.org/2000/svg" width="457" height="435" fill="none" viewBox="0 0 457 435"><g opacity=".298"><rect width="10.317" height="10.633" x="330.425" y="187.358" fill="#0069FF" rx=".679"/><rect width="10.317" height="10.633" x="346.932" y="187.358" fill="#0069FF" rx=".679"/><rect width="10.317" height="10.633" x="363.439" y="187.358" fill="#0069FF" rx=".679"/><rect width="10.317" height="10.633" x="363.439" y="170.344" fill="#0069FF" rx=".679"/><rect width="10.317" height="10.633" x="379.946" y="187.358" fill="#0069FF" rx=".679"/><rect width="10.317" height="10.633" x="330.425" y="204.369" fill="#0069FF" rx=".679"/><rect width="10.317" height="10.633" x="313.918" y="204.369" fill="#0069FF" rx=".679"/><rect width="10.317" height="10.633" x="346.932" y="204.371" fill="#0069FF" rx=".679"/><rect width="10.317" height="10.633" x="363.439" y="204.371" fill="#0069FF" rx=".679"/><rect width="10.317" height="10.633" x="379.946" y="204.369" fill="#0069FF" rx=".679"/><rect width="10.317" height="10.633" x="396.452" y="204.369" fill="#0069FF" rx=".679"/><rect width="10.317" height="10.633" x="330.425" y="221.382" fill="#0069FF" rx=".679"/><rect width="10.317" height="10.633" x="313.918" y="221.382" fill="#0069FF" rx=".679"/><rect width="10.317" height="10.633" x="297.412" y="221.382" fill="#0069FF" rx=".679"/><rect width="10.317" height="10.633" x="346.932" y="221.385" fill="#0069FF" rx=".679"/><rect width="10.317" height="10.633" x="363.439" y="221.385" fill="#0069FF" rx=".679"/><rect width="10.317" height="10.633" x="379.946" y="221.382" fill="#0069FF" rx=".679"/><rect width="10.317" height="10.633" x="396.452" y="221.382" fill="#0069FF" rx=".679"/><rect width="10.317" height="10.633" x="412.959" y="221.382" fill="#0069FF" rx=".679"/><rect width="10.317" height="10.633" x="330.425" y="238.396" fill="#0069FF" rx=".679"/><rect width="10.317" height="10.633" x="313.918" y="238.396" fill="#0069FF" rx=".679"/><rect width="10.317" height="10.633" x="297.412" y="238.396" fill="#0069FF" rx=".679"/><rect width="10.317" height="10.633" x="280.905" y="238.396" fill="#0069FF" rx=".679"/><rect width="10.317" height="10.633" x="346.932" y="238.398" fill="#0069FF" rx=".679"/><rect width="10.317" height="10.633" x="363.439" y="238.398" fill="#0069FF" rx=".679"/><rect width="10.317" height="10.633" x="379.946" y="238.396" fill="#0069FF" rx=".679"/><rect width="10.317" height="10.633" x="396.452" y="238.396" fill="#0069FF" rx=".679"/><rect width="10.317" height="10.633" x="412.959" y="238.396" fill="#0069FF" rx=".679"/><rect width="10.317" height="10.633" x="429.466" y="238.396" fill="#0069FF" rx=".679"/><rect width="10.317" height="10.633" x="330.425" y="255.409" fill="#0069FF" rx=".679"/><rect width="10.317" height="10.633" x="313.918" y="255.409" fill="#0069FF" rx=".679"/><rect width="10.317" height="10.633" x="297.412" y="255.409" fill="#0069FF" rx=".679"/><rect width="10.317" height="10.633" x="280.905" y="255.409" fill="#0069FF" rx=".679"/><rect width="10.317" height="10.633" x="264.398" y="255.409" fill="#0069FF" rx=".679"/><rect width="10.317" height="10.633" x="346.932" y="255.411" fill="#0069FF" rx=".679"/><rect width="10.317" height="10.633" x="363.439" y="255.411" fill="#0069FF" rx=".679"/><rect width="10.317" height="10.633" x="379.946" y="255.409" fill="#0069FF" rx=".679"/><rect width="10.317" height="10.633" x="396.452" y="255.409" fill="#0069FF" rx=".679"/><rect width="10.317" height="10.633" x="412.959" y="255.409" fill="#0069FF" rx=".679"/><rect width="10.317" height="10.633" x="429.466" y="255.409" fill="#0069FF" rx=".679"/><rect width="10.317" height="10.633" x="445.973" y="255.409" fill="#0069FF" rx=".679"/><rect width="10.317" height="10.633" x="330.425" y="272.422" fill="#0069FF" rx=".679"/><rect width="10.317" height="10.633" x="313.918" y="272.422" fill="#0069FF" rx=".679"/><rect width="10.317" height="10.633" x="297.412" y="272.422" fill="#0069FF" rx=".679"/><rect width="10.317" height="10.633" x="280.905" y="272.422" fill="#0069FF" rx=".679"/><rect width="10.317" height="10.633" x="346.932" y="272.424" fill="#0069FF" rx=".679"/><rect width="10.317" height="10.633" x="363.439" y="272.424" fill="#0069FF" rx=".679"/><rect width="10.317" height="10.633" x="379.946" y="272.422" fill="#0069FF" rx=".679"/><rect width="10.317" height="10.633" x="396.452" y="272.422" fill="#0069FF" rx=".679"/><rect width="10.317" height="10.633" x="412.959" y="272.422" fill="#0069FF" rx=".679"/><rect width="10.317" height="10.633" x="429.466" y="272.422" fill="#0069FF" rx=".679"/><rect width="10.317" height="10.633" x="330.425" y="289.436" fill="#0069FF" rx=".679"/><rect width="10.317" height="10.633" x="313.918" y="289.436" fill="#0069FF" rx=".679"/><rect width="10.317" height="10.633" x="297.412" y="289.436" fill="#0069FF" rx=".679"/><rect width="10.317" height="10.633" x="346.932" y="289.438" fill="#0069FF" rx=".679"/><rect width="10.317" height="10.633" x="363.439" y="289.438" fill="#0069FF" rx=".679"/><rect width="10.317" height="10.633" x="379.946" y="289.436" fill="#0069FF" rx=".679"/><rect width="10.317" height="10.633" x="396.452" y="289.436" fill="#0069FF" rx=".679"/><rect width="10.317" height="10.633" x="412.959" y="289.436" fill="#0069FF" rx=".679"/><rect width="10.317" height="10.633" x="330.425" y="306.449" fill="#0069FF" rx=".679"/><rect width="10.317" height="10.633" x="313.918" y="306.449" fill="#0069FF" rx=".679"/><rect width="10.317" height="10.633" x="346.932" y="306.451" fill="#0069FF" rx=".679"/><rect width="10.317" height="10.633" x="363.439" y="306.451" fill="#0069FF" rx=".679"/><rect width="10.317" height="10.633" x="379.946" y="306.449" fill="#0069FF" rx=".679"/><rect width="10.317" height="10.633" x="396.452" y="306.449" fill="#0069FF" rx=".679"/><rect width="10.317" height="10.633" x="330.425" y="323.462" fill="#0069FF" rx=".679"/><rect width="10.317" height="10.633" x="346.932" y="323.465" fill="#0069FF" rx=".679"/><rect width="10.317" height="10.633" x="363.439" y="323.465" fill="#0069FF" rx=".679"/><rect width="10.317" height="10.633" x="363.439" y="340.478" fill="#0069FF" rx=".679"/><rect width="10.317" height="10.633" x="379.946" y="323.462" fill="#0069FF" rx=".679"/></g><g opacity=".298"><rect width="10.317" height="10.633" x="148.851" y="187.358" fill="#0069FF" rx=".679"/><rect width="10.317" height="10.633" x="165.357" y="187.358" fill="#0069FF" rx=".679"/><rect width="10.317" height="10.633" x="165.357" y="170.344" fill="#0069FF" rx=".679"/><rect width="10.317" height="10.633" x="181.864" y="187.358" fill="#0069FF" rx=".679"/><rect width="10.317" height="10.633" x="198.371" y="187.358" fill="#0069FF" rx=".679"/><rect width="10.317" height="10.633" x="148.851" y="204.369" fill="#0069FF" rx=".679"/><rect width="10.317" height="10.633" x="132.344" y="204.369" fill="#0069FF" rx=".679"/><rect width="10.317" height="10.633" x="165.357" y="204.371" fill="#0069FF" rx=".679"/><rect width="10.317" height="10.633" x="181.864" y="204.371" fill="#0069FF" rx=".679"/><rect width="10.317" height="10.633" x="198.371" y="204.369" fill="#0069FF" rx=".679"/><rect width="10.317" height="10.633" x="214.878" y="204.369" fill="#0069FF" rx=".679"/><rect width="10.317" height="10.633" x="148.851" y="221.382" fill="#0069FF" rx=".679"/><rect width="10.317" height="10.633" x="132.344" y="221.382" fill="#0069FF" rx=".679"/><rect width="10.317" height="10.633" x="115.837" y="221.382" fill="#0069FF" rx=".679"/><rect width="10.317" height="10.633" x="165.357" y="221.385" fill="#0069FF" rx=".679"/><rect width="10.317" height="10.633" x="181.864" y="221.385" fill="#0069FF" rx=".679"/><rect width="10.317" height="10.633" x="198.371" y="221.382" fill="#0069FF" rx=".679"/><rect width="10.317" height="10.633" x="214.878" y="221.382" fill="#0069FF" rx=".679"/><rect width="10.317" height="10.633" x="231.385" y="221.382" fill="#0069FF" rx=".679"/><rect width="10.317" height="10.633" x="148.851" y="238.396" fill="#0069FF" rx=".679"/><rect width="10.317" height="10.633" x="132.344" y="238.396" fill="#0069FF" rx=".679"/><rect width="10.317" height="10.633" x="115.837" y="238.396" fill="#0069FF" rx=".679"/><rect width="10.317" height="10.633" x="99.33" y="238.396" fill="#0069FF" rx=".679"/><rect width="10.317" height="10.633" x="165.357" y="238.398" fill="#0069FF" rx=".679"/><rect width="10.317" height="10.633" x="181.864" y="238.398" fill="#0069FF" rx=".679"/><rect width="10.317" height="10.633" x="198.371" y="238.396" fill="#0069FF" rx=".679"/><rect width="10.317" height="10.633" x="214.878" y="238.396" fill="#0069FF" rx=".679"/><rect width="10.317" height="10.633" x="231.385" y="238.396" fill="#0069FF" rx=".679"/><rect width="10.317" height="10.633" x="247.891" y="238.396" fill="#0069FF" rx=".679"/><rect width="10.317" height="10.633" x="148.851" y="255.409" fill="#0069FF" rx=".679"/><rect width="10.317" height="10.633" x="132.344" y="255.409" fill="#0069FF" rx=".679"/><rect width="10.317" height="10.633" x="115.837" y="255.409" fill="#0069FF" rx=".679"/><rect width="10.317" height="10.633" x="99.33" y="255.409" fill="#0069FF" rx=".679"/><rect width="10.317" height="10.633" x="82.823" y="255.409" fill="#0069FF" rx=".679"/><rect width="10.317" height="10.633" x="165.357" y="255.411" fill="#0069FF" rx=".679"/><rect width="10.317" height="10.633" x="181.864" y="255.411" fill="#0069FF" rx=".679"/><rect width="10.317" height="10.633" x="198.371" y="255.409" fill="#0069FF" rx=".679"/><rect width="10.317" height="10.633" x="214.878" y="255.409" fill="#0069FF" rx=".679"/><rect width="10.317" height="10.633" x="231.385" y="255.409" fill="#0069FF" rx=".679"/><rect width="10.317" height="10.633" x="247.891" y="255.409" fill="#0069FF" rx=".679"/><rect width="10.317" height="10.633" x="148.851" y="272.422" fill="#0069FF" rx=".679"/><rect width="10.317" height="10.633" x="132.344" y="272.422" fill="#0069FF" rx=".679"/><rect width="10.317" height="10.633" x="115.837" y="272.422" fill="#0069FF" rx=".679"/><rect width="10.317" height="10.633" x="99.33" y="272.422" fill="#0069FF" rx=".679"/><rect width="10.317" height="10.633" x="165.357" y="272.424" fill="#0069FF" rx=".679"/><rect width="10.317" height="10.633" x="181.864" y="272.424" fill="#0069FF" rx=".679"/><rect width="10.317" height="10.633" x="198.371" y="272.422" fill="#0069FF" rx=".679"/><rect width="10.317" height="10.633" x="214.878" y="272.422" fill="#0069FF" rx=".679"/><rect width="10.317" height="10.633" x="231.385" y="272.422" fill="#0069FF" rx=".679"/><rect width="10.317" height="10.633" x="247.891" y="272.422" fill="#0069FF" rx=".679"/><rect width="10.317" height="10.633" x="148.851" y="289.436" fill="#0069FF" rx=".679"/><rect width="10.317" height="10.633" x="132.344" y="289.436" fill="#0069FF" rx=".679"/><rect width="10.317" height="10.633" x="115.837" y="289.436" fill="#0069FF" rx=".679"/><rect width="10.317" height="10.633" x="165.357" y="289.438" fill="#0069FF" rx=".679"/><rect width="10.317" height="10.633" x="181.864" y="289.438" fill="#0069FF" rx=".679"/><rect width="10.317" height="10.633" x="198.371" y="289.436" fill="#0069FF" rx=".679"/><rect width="10.317" height="10.633" x="214.878" y="289.436" fill="#0069FF" rx=".679"/><rect width="10.317" height="10.633" x="231.385" y="289.436" fill="#0069FF" rx=".679"/><rect width="10.317" height="10.633" x="148.851" y="306.449" fill="#0069FF" rx=".679"/><rect width="10.317" height="10.633" x="132.344" y="306.449" fill="#0069FF" rx=".679"/><rect width="10.317" height="10.633" x="165.357" y="306.451" fill="#0069FF" rx=".679"/><rect width="10.317" height="10.633" x="181.864" y="306.451" fill="#0069FF" rx=".679"/><rect width="10.317" height="10.633" x="198.371" y="306.449" fill="#0069FF" rx=".679"/><rect width="10.317" height="10.633" x="214.878" y="306.449" fill="#0069FF" rx=".679"/><rect width="10.317" height="10.633" x="148.851" y="323.462" fill="#0069FF" rx=".679"/><rect width="10.317" height="10.633" x="165.357" y="323.465" fill="#0069FF" rx=".679"/><rect width="10.317" height="10.633" x="181.864" y="323.465" fill="#0069FF" rx=".679"/><rect width="10.317" height="10.633" x="198.371" y="323.462" fill="#0069FF" rx=".679"/></g><g opacity=".298"><rect width="10.317" height="10.633" x="264.398" y="238.398" fill="#0069FF" rx=".679"/><rect width="10.317" height="10.633" x="264.398" y="272.424" fill="#0069FF" rx=".679"/><rect width="10.317" height="10.633" x="247.891" y="289.436" fill="#0069FF" rx=".679"/><rect width="10.317" height="10.633" x="264.398" y="289.438" fill="#0069FF" rx=".679"/><rect width="10.317" height="10.633" x="280.905" y="289.438" fill="#0069FF" rx=".679"/><rect width="10.317" height="10.633" x="247.891" y="306.449" fill="#0069FF" rx=".679"/><rect width="10.317" height="10.633" x="231.385" y="306.449" fill="#0069FF" rx=".679"/><rect width="10.317" height="10.633" x="264.398" y="306.451" fill="#0069FF" rx=".679"/><rect width="10.317" height="10.633" x="280.905" y="306.451" fill="#0069FF" rx=".679"/><rect width="10.317" height="10.633" x="297.412" y="306.449" fill="#0069FF" rx=".679"/><rect width="10.317" height="10.633" x="247.891" y="323.462" fill="#0069FF" rx=".679"/><rect width="10.317" height="10.633" x="231.385" y="323.462" fill="#0069FF" rx=".679"/><rect width="10.317" height="10.633" x="214.878" y="323.462" fill="#0069FF" rx=".679"/><rect width="10.317" height="10.633" x="264.398" y="323.465" fill="#0069FF" rx=".679"/><rect width="10.317" height="10.633" x="280.905" y="323.465" fill="#0069FF" rx=".679"/><rect width="10.317" height="10.633" x="297.412" y="323.462" fill="#0069FF" rx=".679"/><rect width="10.317" height="10.633" x="313.918" y="323.462" fill="#0069FF" rx=".679"/><rect width="10.317" height="10.633" x="247.891" y="340.476" fill="#0069FF" rx=".679"/><rect width="10.317" height="10.633" x="231.385" y="340.476" fill="#0069FF" rx=".679"/><rect width="10.317" height="10.633" x="214.878" y="340.476" fill="#0069FF" rx=".679"/><rect width="10.317" height="10.633" x="264.398" y="340.478" fill="#0069FF" rx=".679"/><rect width="10.317" height="10.633" x="280.905" y="340.478" fill="#0069FF" rx=".679"/><rect width="10.317" height="10.633" x="297.412" y="340.476" fill="#0069FF" rx=".679"/><rect width="10.317" height="10.633" x="313.918" y="340.476" fill="#0069FF" rx=".679"/><rect width="10.317" height="10.633" x="330.425" y="340.476" fill="#0069FF" rx=".679"/><rect width="10.317" height="10.633" x="247.891" y="357.489" fill="#0069FF" rx=".679"/><rect width="10.317" height="10.633" x="231.385" y="357.489" fill="#0069FF" rx=".679"/><rect width="10.317" height="10.633" x="264.398" y="357.491" fill="#0069FF" rx=".679"/><rect width="10.317" height="10.633" x="280.905" y="357.491" fill="#0069FF" rx=".679"/><rect width="10.317" height="10.633" x="297.412" y="357.489" fill="#0069FF" rx=".679"/><rect width="10.317" height="10.633" x="313.918" y="357.489" fill="#0069FF" rx=".679"/><rect width="10.317" height="10.633" x="247.891" y="374.502" fill="#0069FF" rx=".679"/><rect width="10.317" height="10.633" x="264.398" y="374.505" fill="#0069FF" rx=".679"/><rect width="10.317" height="10.633" x="264.398" y="391.518" fill="#0069FF" rx=".679"/><rect width="10.317" height="10.633" x="280.905" y="374.505" fill="#0069FF" rx=".679"/><rect width="10.317" height="10.633" x="297.412" y="374.502" fill="#0069FF" rx=".679"/></g><g opacity=".298"><rect width="10.317" height="10.633" x="66.317" y="238.398" fill="#0069FF" rx=".679"/><rect width="10.317" height="10.633" x="82.823" y="238.398" fill="#0069FF" rx=".679"/><rect width="10.317" height="10.633" x="82.823" y="221.385" fill="#0069FF" rx=".679"/><rect width="10.317" height="10.633" x="66.317" y="255.409" fill="#0069FF" rx=".679"/><rect width="10.317" height="10.633" x="49.81" y="255.409" fill="#0069FF" rx=".679"/><rect width="10.317" height="10.633" x="66.317" y="272.422" fill="#0069FF" rx=".679"/><rect width="10.317" height="10.633" x="49.81" y="272.422" fill="#0069FF" rx=".679"/><rect width="10.317" height="10.633" x="33.303" y="272.422" fill="#0069FF" rx=".679"/><rect width="10.317" height="10.633" x="82.823" y="272.424" fill="#0069FF" rx=".679"/><rect width="10.317" height="10.633" x="66.317" y="289.436" fill="#0069FF" rx=".679"/><rect width="10.317" height="10.633" x="49.81" y="289.436" fill="#0069FF" rx=".679"/><rect width="10.317" height="10.633" x="33.303" y="289.436" fill="#0069FF" rx=".679"/><rect width="10.317" height="10.633" x="16.796" y="289.436" fill="#0069FF" rx=".679"/><rect width="10.317" height="10.633" x="82.823" y="289.438" fill="#0069FF" rx=".679"/><rect width="10.317" height="10.633" x="99.33" y="289.438" fill="#0069FF" rx=".679"/><rect width="10.317" height="10.633" x="66.317" y="306.449" fill="#0069FF" rx=".679"/><rect width="10.317" height="10.633" x="49.81" y="306.449" fill="#0069FF" rx=".679"/><rect width="10.317" height="10.633" x="33.303" y="306.449" fill="#0069FF" rx=".679"/><rect width="10.317" height="10.633" x="16.796" y="306.449" fill="#0069FF" rx=".679"/><rect width="10.317" height="10.633" x=".29" y="306.449" fill="#0069FF" rx=".679"/><rect width="10.317" height="10.633" x="82.823" y="306.451" fill="#0069FF" rx=".679"/><rect width="10.317" height="10.633" x="99.33" y="306.451" fill="#0069FF" rx=".679"/><rect width="10.317" height="10.633" x="115.837" y="306.449" fill="#0069FF" rx=".679"/><rect width="10.317" height="10.633" x="66.317" y="323.462" fill="#0069FF" rx=".679"/><rect width="10.317" height="10.633" x="49.81" y="323.462" fill="#0069FF" rx=".679"/><rect width="10.317" height="10.633" x="33.303" y="323.462" fill="#0069FF" rx=".679"/><rect width="10.317" height="10.633" x="16.796" y="323.462" fill="#0069FF" rx=".679"/><rect width="10.317" height="10.633" x="82.823" y="323.465" fill="#0069FF" rx=".679"/><rect width="10.317" height="10.633" x="99.33" y="323.465" fill="#0069FF" rx=".679"/><rect width="10.317" height="10.633" x="115.837" y="323.462" fill="#0069FF" rx=".679"/><rect width="10.317" height="10.633" x="132.344" y="323.462" fill="#0069FF" rx=".679"/><rect width="10.317" height="10.633" x="66.317" y="340.476" fill="#0069FF" rx=".679"/><rect width="10.317" height="10.633" x="49.81" y="340.476" fill="#0069FF" rx=".679"/><rect width="10.317" height="10.633" x="33.303" y="340.476" fill="#0069FF" rx=".679"/><rect width="10.317" height="10.633" x="82.823" y="340.478" fill="#0069FF" rx=".679"/><rect width="10.317" height="10.633" x="99.33" y="340.478" fill="#0069FF" rx=".679"/><rect width="10.317" height="10.633" x="115.837" y="340.476" fill="#0069FF" rx=".679"/><rect width="10.317" height="10.633" x="132.344" y="340.476" fill="#0069FF" rx=".679"/><rect width="10.317" height="10.633" x="148.851" y="340.476" fill="#0069FF" rx=".679"/><rect width="10.317" height="10.633" x="66.317" y="357.489" fill="#0069FF" rx=".679"/><rect width="10.317" height="10.633" x="49.81" y="357.489" fill="#0069FF" rx=".679"/><rect width="10.317" height="10.633" x="82.823" y="357.491" fill="#0069FF" rx=".679"/><rect width="10.317" height="10.633" x="99.33" y="357.491" fill="#0069FF" rx=".679"/><rect width="10.317" height="10.633" x="115.837" y="357.489" fill="#0069FF" rx=".679"/><rect width="10.317" height="10.633" x="132.344" y="357.489" fill="#0069FF" rx=".679"/><rect width="10.317" height="10.633" x="66.317" y="374.502" fill="#0069FF" rx=".679"/><rect width="10.317" height="10.633" x="82.823" y="374.505" fill="#0069FF" rx=".679"/><rect width="10.317" height="10.633" x="99.33" y="374.505" fill="#0069FF" rx=".679"/><rect width="10.317" height="10.633" x="99.33" y="391.518" fill="#0069FF" rx=".679"/><rect width="10.317" height="10.633" x="115.837" y="374.502" fill="#0069FF" rx=".679"/></g><rect width="10.317" height="10.633" x="371.692" y="204.369" fill="#D856C1" rx=".679"/><rect width="10.317" height="10.633" x="388.199" y="204.369" fill="#D856C1" rx=".679"/><rect width="10.317" height="10.633" x="322.172" y="221.382" fill="#D856C1" rx=".679"/><rect width="10.317" height="10.633" x="338.679" y="221.382" fill="#D856C1" rx=".679"/><rect width="10.317" height="10.633" x="338.679" y="272.422" fill="#D856C1" rx=".679"/><rect width="10.317" height="10.633" x="355.185" y="272.422" fill="#D856C1" rx=".679"/><rect width="10.317" height="10.633" x="355.185" y="323.462" fill="#D856C1" rx=".679"/><rect width="10.317" height="10.633" x="371.692" y="323.462" fill="#D856C1" rx=".679"/><rect width="10.317" height="10.633" x="223.131" y="323.462" fill="#D856C1" rx=".679"/><rect width="10.317" height="10.633" x="239.638" y="323.462" fill="#D856C1" rx=".679"/><rect width="10.317" height="10.633" x="272.651" y="374.502" fill="#D856C1" rx=".679"/><rect width="10.317" height="10.633" x="289.158" y="374.502" fill="#D856C1" rx=".679"/><rect width="10.317" height="10.633" x="223.131" y="272.422" fill="#D856C1" rx=".679"/><rect width="10.317" height="10.633" x="239.638" y="272.422" fill="#D856C1" rx=".679"/><rect width="10.317" height="10.633" x="190.118" y="238.396" fill="#D856C1" rx=".679"/><rect width="10.317" height="10.633" x="206.624" y="238.396" fill="#D856C1" rx=".679"/><rect width="10.317" height="10.633" x="157.104" y="289.436" fill="#D856C1" rx=".679"/><rect width="10.317" height="10.633" x="173.611" y="289.436" fill="#D856C1" rx=".679"/><rect width="10.317" height="10.633" x="140.597" y="204.369" fill="#D856C1" rx=".679"/><rect width="10.317" height="10.633" x="157.104" y="204.369" fill="#D856C1" rx=".679"/><rect width="10.317" height="10.633" x="107.584" y="255.409" fill="#D856C1" rx=".679"/><rect width="10.317" height="10.633" x="124.09" y="255.409" fill="#D856C1" rx=".679"/><rect width="10.317" height="10.633" x="41.556" y="289.436" fill="#D856C1" rx=".679"/><rect width="10.317" height="10.633" x="58.063" y="289.436" fill="#D856C1" rx=".679"/><rect width="10.317" height="10.633" x="107.584" y="340.476" fill="#D856C1" rx=".679"/><rect width="10.317" height="10.633" x="124.09" y="340.476" fill="#D856C1" rx=".679"/><path fill="url(#paint0_linear_14_4440)" d="M286.063 154.207L241.701 127.809L241.701 75.0118L241.764 74.9747L286.063 101.336V154.207Z"/><path fill="url(#paint1_linear_14_4440)" d="M286.063 154.188V101.003L330.425 74.9797V127.81L286.063 154.188Z"/><path fill="url(#paint2_linear_14_4440)" d="M330.409 75.0019L286.065 101.389L241.72 75.0006L286.063 48.6133L330.409 75.0019Z"/><path fill-rule="evenodd" stroke="url(#paint3_linear_14_4440)" stroke-width="1.357" d="M286.063 24.2615L221.326 62.7847V139.831L286.063 178.355L350.801 139.831V62.7847L286.063 24.2615Z" clip-rule="evenodd"/><path stroke="url(#paint4_linear_14_4440)" stroke-dasharray="1.36" stroke-width="1.357" d="M153.187 23.2258L286.063 102.289L417.664 23.2258"/><path stroke="url(#paint5_linear_14_4440)" stroke-dasharray="1.36" stroke-width="1.357" d="M286.063 101.225V308.105"/><path fill="url(#paint6_linear_14_4440)" d="M401.377 260.088V394.672Z"/><path stroke="url(#paint7_linear_14_4440)" stroke-dasharray="1.36" stroke-width="1.357" d="M401.377 260.088V394.672"/><path fill="url(#paint8_linear_14_4440)" d="M87.7481 189.908V332.999Z"/><path stroke="url(#paint9_linear_14_4440)" stroke-dasharray="1.36" stroke-width="1.357" d="M87.7481 189.908V332.999"/><path stroke="url(#paint10_linear_14_4440)" stroke-width="1.357" d="M87.8508 328.786C146.765 263.516 224.381 261.802 286.085 312.93"/><path stroke="url(#paint11_linear_14_4440)" stroke-width="1.357" d="M285.691 313.611C308.633 267.075 347.589 249.809 402.56 261.813"/><path stroke="url(#paint12_linear_14_4440)" stroke-width="1.357" d="M186.56 226.819C186.56 226.819 268.625 230.182 286.582 312.11"/><path stroke="url(#paint13_linear_14_4440)" stroke-dasharray="1.36" stroke-width="1.357" d="M186.927 226.553C266.388 183.785 338.002 195.287 401.768 261.059"/><path fill="url(#paint14_linear_14_4440)" d="M420.181 42.7419C431.577 42.7419 440.814 33.2205 440.814 21.4752C440.814 9.72992 431.577 0.208496 420.181 0.208496C408.785 0.208496 399.547 9.72992 399.547 21.4752C399.547 33.2205 408.785 42.7419 420.181 42.7419Z" opacity=".303"/><path fill="#D856C1" d="M420.181 29.9819C424.739 29.9819 428.434 26.1733 428.434 21.4752C428.434 16.7771 424.739 12.9685 420.181 12.9685C415.623 12.9685 411.927 16.7771 411.927 21.4752C411.927 26.1733 415.623 29.9819 420.181 29.9819Z"/><path fill="url(#paint15_linear_14_4440)" d="M151.946 42.7419C163.341 42.7419 172.579 33.2205 172.579 21.4752C172.579 9.72992 163.341 0.208496 151.946 0.208496C140.55 0.208496 131.312 9.72992 131.312 21.4752C131.312 33.2205 140.55 42.7419 151.946 42.7419Z" opacity=".303"/><path fill="#D856C1" d="M151.946 29.9819C156.504 29.9819 160.199 26.1733 160.199 21.4752C160.199 16.7771 156.504 12.9685 151.946 12.9685C147.387 12.9685 143.692 16.7771 143.692 21.4752C143.692 26.1733 147.387 29.9819 151.946 29.9819Z"/><path fill="url(#paint16_linear_14_4440)" d="M87.9819 350.046C99.3774 350.046 108.615 340.524 108.615 328.779C108.615 317.034 99.3774 307.512 87.9819 307.512C76.5863 307.512 67.3484 317.034 67.3484 328.779C67.3484 340.524 76.5863 350.046 87.9819 350.046Z" opacity=".553"/><path fill="#0069FF" d="M87.9818 337.286C92.5401 337.286 96.2352 333.477 96.2352 328.779C96.2352 324.081 92.5401 320.272 87.9818 320.272C83.4236 320.272 79.7285 324.081 79.7285 328.779C79.7285 333.477 83.4236 337.286 87.9818 337.286Z"/><path fill="url(#paint17_linear_14_4440)" d="M187.023 247.966C198.418 247.966 207.656 238.444 207.656 226.699C207.656 214.954 198.418 205.432 187.023 205.432C175.627 205.432 166.389 214.954 166.389 226.699C166.389 238.444 175.627 247.966 187.023 247.966Z" opacity=".553"/><path fill="#0069FF" d="M187.023 235.205C191.581 235.205 195.276 231.397 195.276 226.699C195.276 222.001 191.581 218.192 187.023 218.192C182.464 218.192 178.769 222.001 178.769 226.699C178.769 231.397 182.464 235.205 187.023 235.205Z"/><path fill="url(#paint18_linear_14_4440)" d="M401.611 281.992C413.006 281.992 422.244 272.471 422.244 260.725C422.244 248.98 413.006 239.459 401.611 239.459C390.215 239.459 380.977 248.98 380.977 260.725C380.977 272.471 390.215 281.992 401.611 281.992Z" opacity=".553"/><path fill="#0069FF" d="M401.611 269.232C406.169 269.232 409.864 265.424 409.864 260.725C409.864 256.027 406.169 252.219 401.611 252.219C397.053 252.219 393.357 256.027 393.357 260.725C393.357 265.424 397.053 269.232 401.611 269.232Z"/><path fill="#D856C1" fill-opacity=".19" stroke="#D856C1" stroke-width="1.357" d="M286.063 333.032C296.889 333.032 305.665 323.987 305.665 312.829C305.665 301.671 296.889 292.626 286.063 292.626C275.238 292.626 266.462 301.671 266.462 312.829C266.462 323.987 275.238 333.032 286.063 333.032Z"/><path fill="#D856C1" d="M286.063 321.336C290.622 321.336 294.317 317.527 294.317 312.829C294.317 308.131 290.622 304.322 286.063 304.322C281.505 304.322 277.81 308.131 277.81 312.829C277.81 317.527 281.505 321.336 286.063 321.336Z"/><path fill="url(#paint19_linear_14_4440)" d="M87.5692 196.021L105.314 185.422L105.314 164.223L105.289 164.208L87.5692 174.793V196.021Z"/><path fill="url(#paint20_linear_14_4440)" d="M87.5692 196.014V174.659L69.8244 164.21V185.423L87.5692 196.014Z"/><path fill="url(#paint21_linear_14_4440)" d="M69.831 164.219L87.5683 174.814L105.306 164.219L87.5691 153.624L69.831 164.219Z"/><path fill="url(#paint22_linear_14_4440)" d="M16.9761 132.394L87.5601 174.847L105.165 164.138L32.3673 120.796L16.9761 132.394Z" opacity=".548"/><path fill="url(#paint23_linear_14_4440)" d="M7.34351 147.54L87.5746 196.018V174.779L24.9061 137.267L7.34351 147.54Z" opacity=".548"/><path fill="url(#paint24_linear_14_4440)" d="M401.198 434.209L418.943 423.609V402.41L418.918 402.396L401.198 412.98V434.209Z"/><path fill="url(#paint25_linear_14_4440)" d="M401.198 434.201V412.846L383.453 402.397V423.61L401.198 434.201Z"/><path fill="url(#paint26_linear_14_4440)" d="M383.46 402.406L401.197 413.001L418.936 402.406L401.198 391.811L383.46 402.406Z"/><path fill="url(#paint27_linear_14_4440)" d="M330.605 370.581L401.189 413.034L418.794 402.325L345.996 358.982L330.605 370.581Z" opacity=".548"/><path fill="url(#paint28_linear_14_4440)" d="M320.972 385.727L401.203 434.205V412.966L338.535 375.454L320.972 385.727Z" opacity=".548"/><defs><linearGradient id="paint0_linear_14_4440" x1="279.169" x2="231.951" y1="63.555" y2="71.772" gradientUnits="userSpaceOnUse"><stop stop-color="#D856C1"/><stop offset="1" stop-color="#0069FF"/></linearGradient><linearGradient id="paint1_linear_14_4440" x1="279.001" x2="326.354" y1="141.437" y2="149.881" gradientUnits="userSpaceOnUse"><stop stop-color="#D856C1"/><stop offset="1" stop-color="#fff"/></linearGradient><linearGradient id="paint2_linear_14_4440" x1="241.72" x2="330.409" y1="101.389" y2="101.389" gradientUnits="userSpaceOnUse"><stop stop-color="#0069FF"/><stop offset="1" stop-color="#fff"/></linearGradient><linearGradient id="paint3_linear_14_4440" x1="221.326" x2="350.801" y1="178.355" y2="178.355" gradientUnits="userSpaceOnUse"><stop stop-color="#0069FF"/><stop offset="1" stop-color="#D856C1"/></linearGradient><linearGradient id="paint4_linear_14_4440" x1="153.187" x2="153.187" y1="23.226" y2="102.289" gradientUnits="userSpaceOnUse"><stop stop-color="#0069FF"/><stop offset="1" stop-color="#00E6DE"/></linearGradient><linearGradient id="paint5_linear_14_4440" x1="287.095" x2="287.095" y1="308.105" y2="101.225" gradientUnits="userSpaceOnUse"><stop stop-color="#0069FF"/><stop offset="1" stop-color="#00E6DE"/></linearGradient><linearGradient id="paint6_linear_14_4440" x1="402.174" x2="409.328" y1="338.127" y2="337.309" gradientUnits="userSpaceOnUse"><stop stop-color="#0069FF" stop-opacity=".01"/><stop offset="1" stop-color="#3465ED" stop-opacity=".371"/></linearGradient><linearGradient id="paint7_linear_14_4440" x1="448.234" x2="355.273" y1="-5741.84" y2="-5741.84" gradientUnits="userSpaceOnUse"><stop stop-color="#00B8D9"/><stop offset="1" stop-color="#3263EC"/></linearGradient><linearGradient id="paint8_linear_14_4440" x1="88.546" x2="95.71" y1="272.88" y2="272.109" gradientUnits="userSpaceOnUse"><stop stop-color="#0069FF" stop-opacity=".01"/><stop offset="1" stop-color="#3465ED" stop-opacity=".371"/></linearGradient><linearGradient id="paint9_linear_14_4440" x1="134.605" x2="41.644" y1="-6191.38" y2="-6191.38" gradientUnits="userSpaceOnUse"><stop stop-color="#00B8D9"/><stop offset="1" stop-color="#3263EC"/></linearGradient><linearGradient id="paint10_linear_14_4440" x1="137.409" x2="158.201" y1="345.456" y2="283.642" gradientUnits="userSpaceOnUse"><stop offset=".478" stop-color="#0069FF"/><stop offset="1" stop-color="#D856C1"/></linearGradient><linearGradient id="paint11_linear_14_4440" x1="363.291" x2="362.785" y1="241.281" y2="276.813" gradientUnits="userSpaceOnUse"><stop stop-color="#0069FF"/><stop offset="1" stop-color="#D856C1"/></linearGradient><linearGradient id="paint12_linear_14_4440" x1="181.489" x2="211.059" y1="269.345" y2="307.248" gradientUnits="userSpaceOnUse"><stop stop-color="#0069FF"/><stop offset="1" stop-color="#D856C1"/></linearGradient><linearGradient id="paint13_linear_14_4440" x1="126.2" x2="181.493" y1="257.154" y2="369.485" gradientUnits="userSpaceOnUse"><stop stop-color="#64A5FA"/><stop offset=".34" stop-color="#D856C1"/><stop offset=".675" stop-color="#D856C1"/><stop offset=".675" stop-color="#D856C1"/><stop offset="1" stop-color="#64A5FA"/></linearGradient><linearGradient id="paint14_linear_14_4440" x1="400.441" x2="440.814" y1="42.281" y2="42.281" gradientUnits="userSpaceOnUse"><stop stop-color="#D856C1"/><stop offset="1" stop-color="#fff" stop-opacity=".01"/></linearGradient><linearGradient id="paint15_linear_14_4440" x1="132.206" x2="172.579" y1="42.281" y2="42.281" gradientUnits="userSpaceOnUse"><stop stop-color="#D856C1"/><stop offset="1" stop-color="#fff" stop-opacity=".01"/></linearGradient><linearGradient id="paint16_linear_14_4440" x1="68.242" x2="108.615" y1="349.585" y2="349.585" gradientUnits="userSpaceOnUse"><stop stop-color="#0069FF"/><stop offset="1" stop-color="#fff" stop-opacity=".01"/></linearGradient><linearGradient id="paint17_linear_14_4440" x1="167.283" x2="207.656" y1="247.505" y2="247.505" gradientUnits="userSpaceOnUse"><stop stop-color="#0069FF"/><stop offset="1" stop-color="#fff" stop-opacity=".01"/></linearGradient><linearGradient id="paint18_linear_14_4440" x1="381.871" x2="422.244" y1="281.532" y2="281.532" gradientUnits="userSpaceOnUse"><stop stop-color="#0069FF"/><stop offset="1" stop-color="#fff" stop-opacity=".01"/></linearGradient><linearGradient id="paint19_linear_14_4440" x1="90.327" x2="109.218" y1="159.623" y2="162.898" gradientUnits="userSpaceOnUse"><stop stop-color="#0446B4"/><stop offset="1" stop-color="#0069FF"/></linearGradient><linearGradient id="paint20_linear_14_4440" x1="90.394" x2="71.448" y1="190.894" y2="194.26" gradientUnits="userSpaceOnUse"><stop stop-color="#0069FF"/><stop offset="1" stop-color="#fff"/></linearGradient><linearGradient id="paint21_linear_14_4440" x1="105.306" x2="69.831" y1="174.814" y2="174.814" gradientUnits="userSpaceOnUse"><stop stop-color="#0069FF"/><stop offset="1" stop-color="#fff"/></linearGradient><linearGradient id="paint22_linear_14_4440" x1="62.822" x2="24.456" y1="190.938" y2="130.667" gradientUnits="userSpaceOnUse"><stop stop-color="#D856C1"/><stop offset="1" stop-color="#fff" stop-opacity=".01"/></linearGradient><linearGradient id="paint23_linear_14_4440" x1="66.31" x2="6.109" y1="194.794" y2="163.509" gradientUnits="userSpaceOnUse"><stop stop-color="#D856C1"/><stop offset="1" stop-color="#fff" stop-opacity=".01"/></linearGradient><linearGradient id="paint24_linear_14_4440" x1="403.956" x2="422.847" y1="397.81" y2="401.086" gradientUnits="userSpaceOnUse"><stop stop-color="#0446B4"/><stop offset="1" stop-color="#0069FF"/></linearGradient><linearGradient id="paint25_linear_14_4440" x1="404.023" x2="385.077" y1="429.081" y2="432.447" gradientUnits="userSpaceOnUse"><stop stop-color="#0069FF"/><stop offset="1" stop-color="#fff"/></linearGradient><linearGradient id="paint26_linear_14_4440" x1="418.936" x2="383.46" y1="413.001" y2="413.001" gradientUnits="userSpaceOnUse"><stop stop-color="#0069FF"/><stop offset="1" stop-color="#fff"/></linearGradient><linearGradient id="paint27_linear_14_4440" x1="376.451" x2="338.085" y1="429.124" y2="368.854" gradientUnits="userSpaceOnUse"><stop stop-color="#D856C1"/><stop offset="1" stop-color="#fff" stop-opacity=".01"/></linearGradient><linearGradient id="paint28_linear_14_4440" x1="379.939" x2="319.738" y1="432.981" y2="401.696" gradientUnits="userSpaceOnUse"><stop stop-color="#D856C1"/><stop offset="1" stop-color="#fff" stop-opacity=".01"/></linearGradient></defs></svg>